<svg xmlns="http://www.w3.org/2000/svg" width="70" height="70" viewBox="0 0 70 70">
  <g fill="#FFF">
    <path d="M40.1276023 29.0006445C39.2489864 29.0006445 38.5339766 29.7169141 38.5339766 30.5973828 38.5339766 31.4777148 39.2489864 32.1939844 40.1276023 32.1939844 41.0062183 32.1939844 41.7209552 31.4775781 41.7210916 30.5973828 41.7210916 29.7169141 41.0062183 29.0006445 40.1276023 29.0006445zM29.7289864 29.0006445C28.8503704 29.0006445 28.1354971 29.7169141 28.1354971 30.5973828 28.1354971 31.4777148 28.8503704 32.1939844 29.7289864 32.1939844 30.6076023 32.1939844 31.3226121 31.4775781 31.3226121 30.5973828 31.3224756 29.7169141 30.6076023 29.0006445 29.7289864 29.0006445zM36.3274074 35.7307617L33.5411891 35.7307617C32.7539961 35.7307617 32.1155361 36.370332 32.1155361 37.1591992 32.1155361 38.7164258 33.380039 39.9835352 34.9343665 39.9835352 36.488694 39.9835352 37.7530604 38.7165625 37.7531969 37.1591992 37.7530604 36.3701953 37.1146004 35.7307617 36.3274074 35.7307617zM1.44434698 67.139707L1.42565302 67.139707C.638460039 67.139707 0 67.7792773 0 68.5681445 0 69.3570117.638460039 69.996582 1.42565302 69.996582L1.44434698 69.996582C2.23153996 69.996582 2.87 69.3570117 2.87 68.5681445 2.87 67.7792773 2.23153996 67.139707 1.44434698 67.139707zM68.4309357 67.1395703L68.4122417 67.1395703C67.6250487 67.1395703 66.9865887 67.7791406 66.9865887 68.5680078 66.9865887 69.356875 67.6250487 69.9964453 68.4122417 69.9964453L68.4309357 69.9964453C69.2181287 69.9964453 69.8565887 69.356875 69.8565887 68.5680078 69.8565887 67.7791406 69.2181287 67.1395703 68.4309357 67.1395703zM62.3076413 37.4602539C58.1412086 37.4602539 54.7517349 40.8564844 54.7517349 45.030918 54.7517349 47.8563477 56.3055166 50.3235742 58.6009162 51.6243164L58.6009162 62.425918C58.6009162 64.4736914 60.2635867 66.1398828 62.3076413 66.1398828 64.3515595 66.1398828 66.0143665 64.4738281 66.0143665 62.425918L66.0143665 51.6243164C68.3097661 50.3235742 69.8635478 47.8563477 69.8635478 45.030918 69.8635478 40.8564844 66.4740741 37.4602539 62.3076413 37.4602539zM62.3076413 40.3171289C64.4049123 40.3171289 66.1854776 41.6996289 66.7909162 43.6024805L57.8243665 43.6024805C58.4298051 41.6996289 60.2103704 40.3171289 62.3076413 40.3171289zM63.1630604 62.425918C63.1630604 62.8904883 62.771306 63.2830078 62.3076413 63.2830078 61.8439766 63.2830078 61.4522222 62.8904883 61.4522222 62.425918L61.4522222 52.5519531C61.7331774 52.5838086 62.0182261 52.6018555 62.3076413 52.6018555 62.5970565 52.6018555 62.8819688 52.5838086 63.1630604 52.5519531L63.1630604 62.425918zM62.3076413 49.744707C60.2103704 49.744707 58.4298051 48.362207 57.8243665 46.4593555L66.7907797 46.4593555C66.1854776 48.3623438 64.4049123 49.744707 62.3076413 49.744707z"/>
    <path d="M63.8001559,67.139707 L55.8907018,67.139707 L55.8907018,57.4813477 C55.8907018,54.6969336 54.2135673,52.0523828 51.8125536,51.0498242 L42.6373684,47.2195117 C42.3111111,47.0833398 42.1002924,46.7665625 42.1002924,46.4123242 L42.1002924,44.1881836 L45.8269396,42.0473047 C45.8528655,42.0322656 45.8783821,42.016543 45.9033528,42 C47.7692008,40.7654297 48.9944055,38.5697266 49.1807992,36.1265625 C49.1836647,36.0904687 49.1848928,36.0539648 49.1848928,36.0177344 L49.1848928,34.8318359 C51.0362768,34.2284961 52.3781481,32.4828711 52.3781481,30.4292188 C52.3781481,28.3755664 51.0361404,26.6300781 49.1848928,26.0266016 L49.1848928,23.589043 C50.3147173,22.1916406 53.5781092,17.68375 52.8450877,13.0388672 C52.4114425,10.2904102 50.7019688,8.03550781 47.764152,6.33705078 C43.482963,3.86175781 39.0342105,3.96552734 34.8992982,6.63728516 C32.9972904,7.86611328 31.5934698,9.37056641 30.7989084,10.3401758 C29.0206628,9.646875 25.4748148,8.81193359 21.8498246,11.1062109 C19.6885575,12.4742188 18.4415205,14.2470508 18.1437817,16.3754883 C17.6762963,19.7152539 19.7941715,22.8450195 20.6721053,23.9769141 L20.6721053,26.0266016 C18.8207212,26.6299414 17.4788499,28.3755664 17.4788499,30.4292187 C17.4788499,32.4828711 18.8208577,34.2283594 20.6721053,34.8318359 L20.6721053,36.0177344 C20.6721053,36.0539648 20.6734698,36.0904687 20.6761988,36.1265625 C20.8634113,38.579707 22.0800195,40.7754102 23.9307212,42 C23.9562378,42.0169531 23.9821637,42.0329492 24.0089084,42.048125 L27.7568421,44.1948828 L27.7568421,46.4123242 C27.7568421,46.7664258 27.5460234,47.0832031 27.2197661,47.2195117 L26.0187135,47.7208594 C26.0273099,47.0685742 25.9075049,46.4138281 25.6588889,45.7879297 C25.1620663,44.5369531 24.2120858,43.5561328 22.9840156,43.0263477 L13.2223587,38.8144531 C13.1997076,38.7816406 13.1784211,38.7478711 13.152768,38.7165625 L9.7420078,34.5640039 C9.42598441,34.1794141 8.93339181,33.9878711 8.44079922,34.0574609 C7.94861598,34.1274609 7.52834308,34.4492969 7.33185185,34.9066211 L6.5614425,36.6990039 C4.10748538,36.3298633 1.61163743,37.6399023 0.584834308,40.0283789 C-0.00682261209,41.4051367 -0.028245614,42.9300977 0.524931774,44.3228516 C0.897719298,45.2612891 1.50192982,46.0631445 2.27643275,46.6683984 L1.5065692,48.4595508 C1.3054386,48.9278125 1.36834308,49.4678516 1.67194932,49.8767773 C1.94267057,50.2416797 2.36826511,50.4529102 2.81555556,50.4529102 C2.8697271,50.4529102 2.92430799,50.4499023 2.97888889,50.4436133 L7.94356725,49.8711719 L12.472963,51.8255664 L8.95658869,55.741875 C8.43015595,56.3283984 8.47777778,57.2315625 9.06288499,57.7592969 C9.33538012,58.0048437 9.67623782,58.1257031 10.0160039,58.1257031 C10.4061209,58.1257031 10.7948733,57.9661523 11.0763743,57.6526562 L15.2372125,53.0184375 L15.4450292,53.108125 C14.5193372,54.3303906 13.9654776,55.8825586 13.9654776,57.4813477 L13.9654776,67.139707 L6.0565692,67.139707 C5.26937622,67.139707 4.63091618,67.7792773 4.63091618,68.5681445 C4.63091618,69.3570117 5.26937622,69.996582 6.0565692,69.996582 L63.8001559,69.996582 C64.5873489,69.996582 65.225809,69.3571484 65.225809,68.5681445 C65.225809,67.7791406 64.5873489,67.139707 63.8001559,67.139707 Z M20.9669786,16.7723828 C21.1455945,15.4963867 21.9322417,14.4329883 23.3723587,13.5216211 C26.9008772,11.288457 30.3703119,13.2637695 30.5096296,13.3452539 C31.1635088,13.7364062 32.008694,13.5437695 32.4292398,12.9077539 C32.4441131,12.8854687 33.9298051,10.6631055 36.4444834,9.03847656 C39.6680312,6.95583984 42.9969201,6.87955078 46.3390448,8.81179687 C48.5218713,10.0737109 49.7282456,11.5996289 50.0274854,13.4767773 C50.4934698,16.4003711 48.64577,19.4970508 47.517037,21.0668555 C47.4792398,21.0363672 47.441306,21.0057422 47.402963,20.9748437 C45.5775049,19.5018359 43.3061209,17.6685742 40.8280117,17.6685742 C37.850078,17.6685742 36.5971735,19.2245703 35.5902924,20.4747266 C34.6094737,21.6927539 33.9007407,22.5728125 31.5137817,22.5728125 C29.2529045,22.5728125 27.9935867,22.0480859 26.8824561,21.5851562 C26.1173684,21.2663281 25.3394542,20.942168 24.448694,20.942168 C23.8357505,20.942168 23.1691813,21.0957031 22.4170565,21.5102344 C21.6873099,20.404043 20.7186355,18.5472656 20.9669786,16.7723828 Z M25.4669006,39.5925195 C24.3776023,38.853418 23.654269,37.5018164 23.5231384,35.9600391 L23.5231384,33.6287109 C23.5231384,32.8398437 22.8846784,32.2002734 22.0974854,32.2002734 C21.122807,32.2002734 20.329883,31.4056641 20.329883,30.4292187 C20.329883,29.4527734 21.1229435,28.6581641 22.0974854,28.6581641 C22.8846784,28.6581641 23.5231384,28.0185937 23.5231384,27.2297266 L23.5231384,24.1628516 C24.302963,23.6081836 24.6391813,23.7447656 25.7876998,24.2232812 C27.0097661,24.7324219 28.6836257,25.4298242 31.5137817,25.4298242 C35.2637622,25.4298242 36.7351267,23.6027148 37.8092788,22.2688867 C38.6847563,21.1818359 39.2130994,20.5255859 40.8278752,20.5255859 C42.3004678,20.5255859 44.1379337,22.0084375 45.614347,23.1999414 C45.8611891,23.3990039 46.0999805,23.5913672 46.3334503,23.7748437 L46.3334503,27.2298633 C46.3334503,28.0187305 46.9719103,28.6583008 47.7591033,28.6583008 C48.7337817,28.6583008 49.5267057,29.4529102 49.5267057,30.4293555 C49.5267057,31.4058008 48.7336452,32.2004102 47.7591033,32.2004102 C46.9719103,32.2004102 46.3334503,32.8399805 46.3334503,33.6288477 L46.3334503,35.9599023 C46.2039571,37.4705078 45.454425,38.8547852 44.3659454,39.5930664 L36.7117934,43.9904883 C36.6858674,44.0055273 36.6603509,44.02125 36.6353801,44.037793 C35.5664133,44.7450391 34.2905848,44.7450391 33.2216179,44.037793 C33.1961014,44.0209766 33.1701754,44.0048438 33.1434308,43.989668 L25.4669006,39.5925195 Z M3.17442495,43.2664258 C2.90302144,42.582832 2.91325536,41.8341602 3.20376218,41.1583594 C3.59688109,40.2439844 4.42896686,39.6543164 5.3474269,39.52375 L3.49072125,43.8437891 C3.36477583,43.6660547 3.25684211,43.4741016 3.17442495,43.2664258 Z M7.29978558,47.069668 L5.09962963,47.3231445 L9.02617934,38.1877344 L10.3988889,39.8589844 L7.29978558,47.069668 Z M10.131306,47.7044531 L12.7103899,41.7037305 L21.8561014,45.6501172 C22.3845809,45.8780273 22.7942105,46.3021289 23.0093957,46.8442187 C23.2248538,47.3861719 23.2180312,47.97625 22.9902924,48.505625 L22.7392203,49.0896875 L18.044308,51.0498242 C18.0178363,51.0608984 17.9919103,51.0732031 17.9654386,51.0846875 L10.131306,47.7044531 Z M33.5098051,67.139707 L16.8173294,67.139707 L16.8173294,57.4813477 C16.8173294,55.8713477 17.8162963,54.2401562 19.1409747,53.6869922 L26.7080702,50.527832 L28.8642885,56.5791406 C29.0388109,57.0688672 29.4649513,57.4246094 29.9770565,57.5085547 C30.0538791,57.5211328 30.1307018,57.5272852 30.207115,57.5272852 C30.6398051,57.5272852 31.0542105,57.3295898 31.327115,56.9824609 L33.5098051,54.2048828 L33.5098051,67.139707 Z M29.2916569,49.2825977 C30.1635867,50.1018164 31.1978947,50.7171875 32.3271735,51.0911133 L30.6821053,53.1848242 L29.2916569,49.2825977 Z M30.6051462,46.4817773 C30.6055556,46.4585352 30.6077388,46.4357031 30.6077388,46.4121875 L30.6077388,45.8278516 L31.6910331,46.448418 C32.6917739,47.0996094 33.81,47.4251367 34.9283626,47.4251367 C36.0469981,47.4251367 37.1656335,47.0993359 38.1665107,46.4478711 L39.2487135,45.8260742 L39.2487135,46.4123242 C39.2487135,46.4414453 39.251306,46.4700195 39.2518519,46.4988672 C38.2292788,47.8545703 36.6484795,48.6528711 34.9351852,48.6528711 C33.2134308,48.6528711 31.6273099,47.8482812 30.6051462,46.4817773 Z M40.5792593,49.2817773 L39.188538,53.1846875 L37.5430604,51.0905664 C38.6723392,50.7165039 39.707193,50.1009961 40.5792593,49.2817773 Z M53.0393957,67.1395703 L36.3609747,67.1395703 L36.3609747,54.2046094 L38.5438012,56.9824609 C38.8167057,57.3297266 39.2311111,57.5272852 39.6638012,57.5272852 C39.740078,57.5272852 39.817037,57.5211328 39.8938596,57.5085547 C40.4059649,57.4247461 40.8321053,57.0687305 41.0066277,56.5791406 L43.1610721,50.5330273 L50.7158869,53.6869922 C52.0404288,54.2398828 53.0393957,55.8712109 53.0393957,57.4813477 L53.0393957,67.1395703 Z"/>
    <path d="M40.4654581 60.9974805L40.4467641 60.9974805C39.6595712 60.9974805 39.0211111 61.6369141 39.0211111 62.425918 39.0211111 63.2147852 39.6595712 63.8543555 40.4467641 63.8543555L40.4654581 63.8543555C41.2526511 63.8543555 41.8911111 63.2147852 41.8911111 62.425918 41.8911111 61.6370508 41.2527875 60.9974805 40.4654581 60.9974805zM50.4263353 60.9973437L45.0775439 60.9973437C44.2903509 60.9973437 43.6518908 61.6369141 43.6518908 62.4257812 43.6518908 63.2146484 44.2903509 63.8542187 45.0775439 63.8542187L50.4263353 63.8542187C51.2135283 63.8542187 51.8519883 63.2147852 51.8519883 62.4257812 51.8519883 61.6369141 51.2135283 60.9973437 50.4263353 60.9973437zM63.1020663 6.77837891C62.5450682 6.22056641 61.6427096 6.22056641 61.085848 6.77837891L59.5889669 8.27818359C59.0322417 8.83613281 59.0322417 9.74066406 59.5889669 10.2983398 59.8673294 10.5772461 60.2320663 10.7166992 60.597076 10.7166992 60.9619493 10.7166992 61.3266862 10.5772461 61.6053216 10.2983398L63.1022027 8.79853516C63.658655 8.24058594 63.658655 7.33619141 63.1020663 6.77837891zM69.4461404 16.4916992L67.7353021 14.7776562C67.1783041 14.2198438 66.275809 14.2198438 65.7190838 14.7776562 65.1623587 15.3356055 65.1623587 16.2401367 65.7190838 16.7978125L67.4297856 18.5119922C67.7082846 18.7908984 68.072885 18.9303516 68.4378947 18.9303516 68.802768 18.9303516 69.1675049 18.7908984 69.4461404 18.5119922 70.0028655 17.9539063 70.0028655 17.0495117 69.4461404 16.4916992zM60.977232 22.5044531C60.4202339 21.9466406 59.5177388 21.9466406 58.9608772 22.5044531L57.6573489 23.8105273C57.1006238 24.3684766 57.1006238 25.2730078 57.6573489 25.8306836 57.9357115 26.1097266 58.3004483 26.249043 58.6654581 26.249043 59.0304678 26.249043 59.3950682 26.1095898 59.6737037 25.8306836L60.977232 24.5246094C61.5339571 23.9667969 61.5339571 23.0622656 60.977232 22.5044531zM57.8811306 32.2585156L56.299922 30.6743555C55.742924 30.1164063 54.8401559 30.116543 54.2837037 30.6743555 53.7269786 31.232168 53.7269786 32.1366992 54.2837037 32.6945117L55.8649123 34.2786719C56.1434113 34.5575781 56.5080117 34.6970313 56.8730214 34.6970313 57.2378947 34.6970313 57.602768 34.5575781 57.8812671 34.2786719 58.4378558 33.7208594 58.4378558 32.8163281 57.8811306 32.2585156zM3.40311891 1.38605469L2.4408577.421914063C1.88385965-.135898438.981500975-.135898438.424639376.421914063-.13208577.979863281-.13208577 1.88439453.424639376 2.44220703L1.38690058 3.40634766C1.66526316 3.68539063 2.03 3.82470703 2.39500975 3.82470703 2.75988304 3.82470703 3.12461988 3.68525391 3.40325536 3.40634766 3.95984405 2.84826172 3.95984405 1.94386719 3.40311891 1.38605469zM13.7391033 9.74230469C13.1821053 9.18449219 12.2796101 9.18449219 11.7227485 9.74230469L10.7247368 10.7422656C10.1680117 11.3002148 10.1680117 12.2047461 10.7247368 12.7625586 11.0030994 13.0414648 11.3678363 13.180918 11.732846 13.180918 12.0977193 13.180918 12.4624561 13.0414648 12.7410916 12.7625586L13.7391033 11.7625977C14.2958285 11.2046484 14.2958285 10.3001172 13.7391033 9.74230469zM16.8989279 25.4098633C16.3419298 24.8520508 15.4394347 24.8520508 14.8825731 25.4098633L13.8845614 26.4098242C13.3278363 26.9677734 13.3278363 27.8723047 13.8845614 28.4301172 14.162924 28.7090234 14.5276608 28.8484766 14.8926706 28.8484766 15.2575439 28.8484766 15.6222807 28.7090234 15.9009162 28.4301172L16.8989279 27.4301562C17.4555166 26.872207 17.4555166 25.9676758 16.8989279 25.4098633zM6.19206628 18.3249609L5.47487329 17.6062305C4.9180117 17.0485547 4.01551657 17.048418 3.45879142 17.6062305 2.90192982 18.164043 2.90192982 19.0685742 3.45865497 19.6263867L4.17584795 20.3451172C4.45421053 20.6240234 4.81894737 20.7634766 5.18395712 20.7634766 5.54883041 20.7634766 5.91356725 20.6240234 6.19206628 20.3451172 6.74865497 19.787168 6.74865497 18.8827734 6.19206628 18.3249609z"/>
  </g>
</svg>
