<svg xmlns="http://www.w3.org/2000/svg" width="70" height="70" viewBox="0 0 70 70">
  <g fill="#FFF">
    <path d="M40.2059766 29.0005078C39.3256445 29.0005078 38.6092383 29.7167773 38.6092383 30.5972461 38.6092383 31.4775781 39.3256445 32.1938477 40.2059766 32.1938477 41.0863086 32.1938477 41.8025781 31.4775781 41.8025781 30.5972461 41.8025781 29.7166406 41.0863086 29.0005078 40.2059766 29.0005078zM29.7870508 29.0005078C28.9067188 29.0005078 28.1904492 29.7167773 28.1904492 30.5972461 28.1904492 31.4775781 28.9067188 32.1938477 29.7870508 32.1938477 30.6673828 32.1938477 31.3837891 31.4775781 31.3837891 30.5972461 31.3836523 29.7166406 30.6673828 29.0005078 29.7870508 29.0005078zM36.3982227 35.730625L33.6066992 35.730625C32.8179687 35.730625 32.1782617 36.3701953 32.1782617 37.1590625 32.1782617 38.7162891 33.4452344 39.9833984 35.0025977 39.9833984 36.5598242 39.9833984 37.8267969 38.7164258 37.8267969 37.1590625 37.8266602 36.3701953 37.1869531 35.730625 36.3982227 35.730625zM1.44716797 67.1394336L1.4284375 67.1394336C.639707031 67.1394336 0 67.7790039 0 68.5678711 0 69.3567383.639707031 69.9963086 1.4284375 69.9963086L1.44716797 69.9963086C2.23589844 69.9963086 2.87560547 69.3567383 2.87560547 68.5678711 2.87560547 67.7790039 2.23589844 67.1394336 1.44716797 67.1394336zM68.5645898 67.1394336L68.5458594 67.1394336C67.7571289 67.1394336 67.1174219 67.7790039 67.1174219 68.5678711 67.1174219 69.3567383 67.7571289 69.9963086 68.5458594 69.9963086L68.5645898 69.9963086C69.3533203 69.9963086 69.9930273 69.3567383 69.9930273 68.5678711 69.9930273 67.7790039 69.3533203 67.1394336 68.5645898 67.1394336zM52.5244727 2.14552734L51.8108008 2.14552734 51.8108008 1.43185547C51.8108008.642988281 51.1710938.00341796875 50.3823633.00341796875 49.5936328.00341796875 48.9539258.642988281 48.9539258 1.43185547L48.9539258 2.14552734 48.2402539 2.14552734C47.4515234 2.14552734 46.8118164 2.78509766 46.8118164 3.57396484 46.8118164 4.36283203 47.45125 5.00240234 48.2402539 5.00240234L48.9539258 5.00240234 48.9539258 5.71621094C48.9539258 6.50507813 49.5936328 7.14464844 50.3823633 7.14464844 51.1710938 7.14464844 51.8108008 6.50507813 51.8108008 5.71621094L51.8108008 5.00240234 52.5244727 5.00240234C53.3132031 5.00240234 53.9529102 4.36283203 53.9529102 3.57396484 53.9529102 2.78509766 53.3132031 2.14552734 52.5244727 2.14552734zM5.73138672 45.9995703L5.01771484 45.9995703 5.01771484 45.2858984C5.01771484 44.4970312 4.37800781 43.8574609 3.58927734 43.8574609 2.80054688 43.8574609 2.16083984 44.4970312 2.16083984 45.2858984L2.16083984 45.9995703 1.44703125 45.9995703C.658300781 45.9995703.01859375 46.6391406.01859375 47.4280078.01859375 48.216875.658300781 48.8564453 1.44703125 48.8564453L2.16083984 48.8564453 2.16083984 49.5702539C2.16083984 50.3591211 2.80054688 50.9986914 3.58927734 50.9986914 4.37800781 50.9986914 5.01771484 50.3592578 5.01771484 49.5702539L5.01771484 48.8564453 5.73138672 48.8564453C6.52011719 48.8564453 7.15982422 48.216875 7.15982422 47.4280078 7.15982422 46.6391406 6.52025391 45.9995703 5.73138672 45.9995703zM64.5714453 54.6683594L63.8577734 54.6683594 63.8577734 53.9546875C63.8577734 53.1658203 63.2180664 52.52625 62.4293359 52.52625 61.6406055 52.52625 61.0008984 53.1658203 61.0008984 53.9546875L61.0008984 54.6683594 60.2872266 54.6683594C59.4984961 54.6683594 58.8587891 55.3079297 58.8587891 56.0967969 58.8587891 56.8856641 59.4984961 57.5252344 60.2872266 57.5252344L61.0008984 57.5252344 61.0008984 58.239043C61.0008984 59.0279102 61.6406055 59.6674805 62.4293359 59.6674805 63.2180664 59.6674805 63.8577734 59.0280469 63.8577734 58.239043L63.8577734 57.5252344 64.5714453 57.5252344C65.3601758 57.5252344 65.9998828 56.8856641 65.9998828 56.0967969 65.9998828 55.3079297 65.3601758 54.6683594 64.5714453 54.6683594zM68.5715625 29.3651367L67.8578906 29.3651367 67.8578906 28.6513281C67.8578906 27.8624609 67.2181836 27.2228906 66.4294531 27.2228906 65.6407227 27.2228906 65.0010156 27.8624609 65.0010156 28.6513281L65.0010156 29.3651367 64.2873437 29.3651367C63.4986133 29.3651367 62.8589062 30.004707 62.8589062 30.7935742 62.8589062 31.5824414 63.4986133 32.2220117 64.2873437 32.2220117L65.0010156 32.2220117 65.0010156 32.9356836C65.0010156 33.7245508 65.6407227 34.3641211 66.4294531 34.3641211 67.2181836 34.3641211 67.8578906 33.7245508 67.8578906 32.9356836L67.8578906 32.2220117 68.5715625 32.2220117C69.360293 32.2220117 70 31.5824414 70 30.7935742 70 30.004707 69.360293 29.3651367 68.5715625 29.3651367z"/>
    <path d="M40.061875,24.1923828 L30.1430664,24.1923828 C26.2813086,24.1923828 23.1395117,27.3341797 23.1395117,31.1959375 L23.1395117,37.6914453 C23.1395117,41.5533398 26.2813086,44.695 30.1430664,44.695 L40.061875,44.695 C43.9236328,44.695 47.0654297,41.5532031 47.0654297,37.6914453 L47.0654297,31.1959375 C47.0654297,27.3341797 43.9236328,24.1923828 40.061875,24.1923828 Z M44.208418,37.6914453 C44.208418,39.9779297 42.3483594,41.838125 40.0617383,41.838125 L30.1429297,41.838125 C27.856582,41.838125 25.99625,39.9779297 25.99625,37.6914453 L25.99625,31.1959375 C25.99625,28.9094531 27.8564453,27.0492578 30.1429297,27.0492578 L40.0617383,27.0492578 C42.3483594,27.0492578 44.208418,28.9094531 44.208418,31.1959375 L44.208418,37.6914453 Z"/>
    <path d="M63.9244922,67.1394336 L55.9997266,67.1394336 L55.9997266,57.4810742 C55.9997266,54.6966602 54.3193164,52.0521094 51.9136133,51.0495508 L47.9627148,49.403457 C51.1957031,48.0368164 53.470293,44.8334961 53.470293,41.1087305 L53.470293,40.3101562 C55.1471484,39.7932227 56.3527344,38.3939062 56.3527344,36.7521875 L56.3527344,31.3389453 C56.3527344,29.6266797 55.0416016,28.178418 53.2519531,27.7194531 C52.6975586,23.9111523 51.0975391,20.5043945 48.6085742,17.9206836 C45.5419727,14.7373242 41.3508594,12.984043 36.8072852,12.984043 L33.2002344,12.984043 C28.6565234,12.984043 24.4655469,14.7371875 21.3989453,17.9206836 C21.2335156,18.0924023 21.0727344,18.2682227 20.9152344,18.4470508 L16.9963281,10.0913477 C16.9955078,10.0841016 16.9948242,10.0767187 16.9938672,10.0693359 C16.5458398,6.50767578 14.5878906,3.14972656 11.4804102,0.614140625 C10.9567773,0.186894531 10.2055078,0.185117187 9.67996094,0.609628906 C6.45380859,3.21466797 4.58363281,6.59763672 4.15351562,10.101875 L0.1421875,18.6551367 C-0.0653515625,19.0975586 -0.032265625,19.6153125 0.229960937,20.027793 C0.492050781,20.4401367 0.946914062,20.6900586 1.43541016,20.6900586 L6.96199219,20.6900586 C6.84263672,22.5056836 7.51091797,24.3340234 8.85390625,25.6210938 C8.86033203,25.6272461 8.86689453,25.6333984 8.87345703,25.6394141 L9.66970703,26.3742773 C9.94328125,26.6267969 10.290957,26.753125 10.6384961,26.753125 C10.9860352,26.753125 11.3337109,26.6267969 11.6072852,26.3742773 L12.4035352,25.6394141 C12.4176172,25.6265625 12.4312891,25.6133008 12.4448242,25.5999023 C13.7770117,24.2675781 14.4324414,22.4741016 14.3162305,20.6899219 L19.2591602,20.6899219 C17.9811133,22.7644922 17.1292188,25.1499609 16.755293,27.7194531 C14.9656445,28.1782812 13.6545117,29.6266797 13.6545117,31.3389453 L13.6545117,36.7521875 C13.6545117,38.3939063 14.8599609,39.7932227 16.5369531,40.3101562 L16.5369531,41.1087305 C16.5369531,44.8308984 18.808125,48.0324414 22.0374219,49.4007227 L18.0796875,51.0498242 C15.6738477,52.0522461 13.9935742,54.6970703 13.9935742,57.4812109 L13.9935742,67.1395703 L6.06826172,67.1395703 C5.27953125,67.1395703 4.63982422,67.7791406 4.63982422,68.5680078 C4.63982422,69.356875 5.27953125,69.9964453 6.06826172,69.9964453 L63.9243555,69.9964453 C64.7130859,69.9964453 65.352793,69.356875 65.352793,68.5680078 C65.352793,67.7791406 64.7132227,67.1394336 63.9244922,67.1394336 Z M3.68306641,17.8333203 L4.69533203,15.6745312 C4.93322266,16.4065234 5.23755859,17.128125 5.61011719,17.8333203 L3.68306641,17.8333203 Z M10.6341211,23.3532031 C9.99646484,22.6255859 9.70880859,21.6462695 9.82748047,20.6901953 L11.4526563,20.6901953 C11.5724219,21.6339648 11.2855859,22.5878516 10.6341211,23.3532031 Z M12.1942188,17.8333203 L8.96027344,17.8333203 C7.35287109,15.5838867 6.69976562,13.0757812 6.95378906,10.6290625 L10.958418,10.6290625 C11.7471484,10.6290625 12.3868555,9.98949219 12.3868555,9.200625 C12.3868555,8.41175781 11.7471484,7.7721875 10.958418,7.7721875 L7.67826172,7.7721875 C8.28994141,6.286875 9.25818359,4.87675781 10.5727344,3.62345703 C14.7731445,7.66513672 15.4348633,13.2930273 12.1942188,17.8333203 Z M15.5415039,17.8333203 C15.9111914,17.1307227 16.2166211,16.4065234 16.4558789,15.6674219 L17.4716992,17.8333203 L15.5415039,17.8333203 Z M19.3938281,41.1088672 L19.3938281,30.7593945 C19.3938281,22.1152148 25.2001367,15.8411914 33.1999609,15.8411914 L36.8070117,15.8411914 C44.8069727,15.8411914 50.6131445,22.1150781 50.6131445,30.7593945 L50.6131445,41.1088672 C50.6131445,44.4963477 47.857168,47.2524609 44.4695508,47.2524609 L25.5371484,47.2524609 C22.149668,47.2521875 19.3938281,44.4963477 19.3938281,41.1088672 Z M33.5751172,67.1394336 L16.8501758,67.1394336 L16.8501758,57.4810742 C16.8501758,56.2927148 17.3962305,55.094375 18.2155859,54.3249219 C20.902793,57.553125 26.78375,59.7377539 33.5751172,60.0080469 L33.5751172,67.1394336 Z M20.8664258,52.9834375 L27.7649805,50.1090625 L42.2279102,50.1090625 L49.1361719,52.9875391 C46.8328711,55.2075781 41.6951172,57.1804297 35.0032813,57.1804297 C28.30625,57.180293 23.1675391,55.2056641 20.8664258,52.9834375 Z M53.143125,67.1394336 L53.1428516,67.1394336 L36.4319922,67.1394336 L36.4319922,60.0081836 C43.2169336,59.7380273 49.0954297,57.5564063 51.7853711,54.3324414 C52.6003516,55.1020313 53.143125,56.296543 53.143125,57.4810742 L53.143125,67.1394336 Z"/>
    <path d="M10.5773828 27.2228906C9.78865234 27.2228906 9.14894531 27.8624609 9.14894531 28.6513281L9.14894531 32.4763086C9.14894531 33.2651758 9.78865234 33.9047461 10.5773828 33.9047461 11.3661133 33.9047461 12.0058203 33.2651758 12.0058203 32.4763086L12.0058203 28.6513281C12.0058203 27.8624609 11.3661133 27.2228906 10.5773828 27.2228906zM6.059375 23.5790625C5.27064453 23.5790625 4.6309375 24.2186328 4.6309375 25.0075L4.6309375 28.8323438C4.6309375 29.6213477 5.27050781 30.260918 6.059375 30.260918 6.84810547 30.260918 7.4878125 29.6213477 7.4878125 28.8324805L7.4878125 25.0075C7.4878125 24.2184961 6.84810547 23.5790625 6.059375 23.5790625zM15.0953906 23.5790625C14.3066602 23.5790625 13.6669531 24.2186328 13.6669531 25.0075L13.6669531 26.1436328C13.6669531 26.9325 14.3066602 27.5720703 15.0953906 27.5720703 15.8841211 27.5720703 16.5238281 26.9325 16.5238281 26.1436328L16.5238281 25.0075C16.5238281 24.2184961 15.8841211 23.5790625 15.0953906 23.5790625zM26.8985938 20.9525586C26.3489844 20.3866797 25.4444531 20.3732812 24.8787109 20.9231641L24.8248437 20.9763477C24.2686719 21.5358008 24.2712695 22.4401953 24.8307227 22.9963672 25.1093555 23.2734961 25.4737109 23.4118555 25.8379297 23.4118555 26.2047461 23.4118555 26.5718359 23.2713086 26.8510156 22.9904883L26.8691992 22.9724414C27.4349414 22.422832 27.4482031 21.5184375 26.8985938 20.9525586zM45.1748828 20.9691016C42.8461523 18.6597852 39.7096875 17.3878906 36.3435352 17.3878906L33.6635742 17.3878906C31.934082 17.3878906 30.2711719 17.7176563 28.7213281 18.3680273 27.9939844 18.6733203 27.6517773 19.5104492 27.9569336 20.237793 28.2622266 20.9654102 29.0996289 21.3077539 29.8269727 21.0023242 31.0249023 20.4996094 32.3155273 20.2446289 33.6634375 20.2446289L36.3433984 20.2446289C38.9511719 20.2446289 41.3730078 21.2223047 43.1633398 22.9974609 43.4418359 23.2737695 43.8053711 23.411582 44.169043 23.411582 44.5364062 23.411582 44.904043 23.270625 45.1833594 22.9891211 45.7389844 22.4289844 45.7351562 21.5245898 45.1748828 20.9691016z"/>
  </g>
</svg>
