<svg xmlns="http://www.w3.org/2000/svg" width="108" height="108" viewBox="0 0 108 108">
  <g fill="none" fill-rule="evenodd" transform="translate(-10 -10)">
    <rect width="128" height="128"/>
    <g fill="#FFF" fill-rule="nonzero" transform="translate(10.667 10.667)">
      <path d="M53.3333333,0 C23.9253333,0 0,23.9253333 0,53.3333333 C0,82.7466667 23.9253333,106.666667 53.3333333,106.666667 C82.7413333,106.666667 106.666667,82.7466667 106.666667,53.3333333 C106.666667,23.9253333 82.7413333,0 53.3333333,0 Z M53.3333333,96 C29.808,96 10.6666667,76.8586667 10.6666667,53.3333333 C10.6666667,29.808 29.808,10.6666667 53.3333333,10.6666667 C76.8586667,10.6666667 96,29.808 96,53.3333333 C96,76.8586667 76.8586667,96 53.3333333,96 Z"/>
      <polygon points="42.667 74.667 74.667 53.333 42.667 32"/>
    </g>
  </g>
</svg>
