<svg xmlns="http://www.w3.org/2000/svg" width="40" height="40" viewBox="0 0 40 40">
  <path fill="#F2F2F2" fill-rule="evenodd" d="M4,0 L36,0 C38.209139,0 40,1.790861 40,4 L40,36 C40,38.209139 38.209139,40 36,40 L4,40 C1.790861,40 0,38.209139 0,36 L0,4 C0,1.790861 1.790861,0 4,0 Z M26,16.57 L21.682,16.57 L21.682,14.428 C21.682,14.428 21.441,12.391 22.84,12.391 L25.684,12.391 L25.684,8 L20.842,8 C19.7481372,7.97833672 18.6936622,8.40826204 17.926779,9.18857944 C17.1598957,9.96889683 16.7483456,11.0306783 16.789,12.124 C16.789,13.014 16.789,14.634 16.779,16.572 L14,16.572 L14,20.108 L16.773,20.108 C16.757,25.731 16.738,31.998 16.738,31.998 L21.683,31.998 L21.683,20.108 L24.947,20.108 L26,16.57 Z"/>
</svg>
