<svg xmlns="http://www.w3.org/2000/svg" width="40" height="40" viewBox="0 0 40 40">
  <path fill="#F2F2F2" fill-rule="evenodd" d="M4,0 L36,0 C38.209139,0 40,1.790861 40,4 L40,36 C40,38.209139 38.209139,40 36,40 L4,40 C1.790861,40 0,38.209139 0,36 L0,4 C0,1.790861 1.790861,0 4,0 Z M13.043,30.989 L13.043,15.129 L8.162,15.129 L8.162,30.989 L13.043,30.989 Z M13.043,9.508 C13.0516006,8.12217849 11.9379205,6.99033222 10.5521413,6.97651075 C9.16636199,6.96268928 8.0303281,8.07209737 8.01128597,9.45781474 C7.99224385,10.8435321 9.09736421,11.9837375 10.483,12.008 L10.512,12.008 C11.1874669,12.0412366 11.8459013,11.7896076 12.3270438,11.3143581 C12.8081863,10.8391087 13.0679102,10.1838252 13.043,9.508 Z M21.007,30.989 L21.007,21.953 C20.986321,21.5086425 21.0459417,21.0641976 21.183,20.641 C21.591174,19.470271 22.6911926,18.6824848 23.931,18.673 C25.87,18.673 27.085,19.778 27.085,21.953 L27.085,30.989 L32,30.989 L32,21.711 C32,16.741 29.358,14.428 25.834,14.428 C23.8295305,14.3495319 21.9507015,15.4029436 20.972,17.154 L21.008,15.033 L16.1,15.033 C16.17,16.552 16.1,30.989 16.1,30.989 L21.006,30.989 L21.007,30.989 Z"/>
</svg>
