<svg xmlns="http://www.w3.org/2000/svg" width="60" height="34" viewBox="0 0 60 34">
  <path fill="#3ABBC3" fill-rule="evenodd" d="M2,0 L58,0 C59.1045695,-2.02906125e-16 60,0.8954305 60,2 L60,4 C60,5.1045695 59.1045695,6 58,6 L2,6 C0.8954305,6 1.3527075e-16,5.1045695 0,4 L0,2 C-1.3527075e-16,0.8954305 0.8954305,2.02906125e-16 2,0 Z M2,14 L58,14 C59.1045695,14 60,14.8954305 60,16 L60,18 C60,19.1045695 59.1045695,20 58,20 L2,20 C0.8954305,20 1.3527075e-16,19.1045695 0,18 L0,16 C-1.3527075e-16,14.8954305 0.8954305,14 2,14 Z M2,28 L38,28 C39.1045695,28 40,28.8954305 40,30 L40,32 C40,33.1045695 39.1045695,34 38,34 L2,34 C0.8954305,34 1.3527075e-16,33.1045695 0,32 L0,30 C-1.3527075e-16,28.8954305 0.8954305,28 2,28 Z"/>
</svg>
