<svg xmlns="http://www.w3.org/2000/svg" width="70" height="69" viewBox="0 0 70 69">
  <g fill="#FFF">
    <path d="M1.44716797 65.4204687L1.4284375 65.4204687C.639707031 65.4204687 0 66.0600391 0 66.8489062 0 67.6377734.639707031 68.2773438 1.4284375 68.2773438L1.44716797 68.2773438C2.23589844 68.2773438 2.87560547 67.6379102 2.87560547 66.8489062 2.87560547 66.0600391 2.23589844 65.4204687 1.44716797 65.4204687zM68.5645898 65.4204687L68.5458594 65.4204687C67.7571289 65.4204687 67.1174219 66.0600391 67.1174219 66.8489062 67.1174219 67.6377734 67.7571289 68.2773438 68.5458594 68.2773438L68.5645898 68.2773438C69.3533203 68.2773438 69.9930273 67.6379102 69.9930273 66.8489062 69.9930273 66.0600391 69.3533203 65.4204687 68.5645898 65.4204687zM40.5444922 59.2782422L40.5257617 59.2782422C39.7370313 59.2782422 39.0973242 59.9176758 39.0973242 60.7066797 39.0973242 61.4955469 39.7370313 62.1351172 40.5257617 62.1351172L40.5444922 62.1351172C41.3332227 62.1351172 41.9729297 61.4955469 41.9729297 60.7066797 41.9729297 59.9178125 41.3333594 59.2782422 40.5444922 59.2782422zM50.5248242 59.2782422L45.1655859 59.2782422C44.3768555 59.2782422 43.7371484 59.9176758 43.7371484 60.7066797 43.7371484 61.4955469 44.3768555 62.1351172 45.1655859 62.1351172L50.5248242 62.1351172C51.3135547 62.1351172 51.9532617 61.4955469 51.9532617 60.7066797 51.9532617 59.9178125 51.3135547 59.2782422 50.5248242 59.2782422zM29.4326758 59.2782422L29.4139453 59.2782422C28.6252148 59.2782422 27.9855078 59.9176758 27.9855078 60.7066797 27.9855078 61.4955469 28.6252148 62.1351172 29.4139453 62.1351172L29.4326758 62.1351172C30.2214063 62.1351172 30.8611133 61.4955469 30.8611133 60.7066797 30.8611133 59.9178125 30.2214063 59.2782422 29.4326758 59.2782422zM24.7927148 59.2782422L19.4334766 59.2782422C18.6447461 59.2782422 18.0050391 59.9176758 18.0050391 60.7066797 18.0050391 61.4955469 18.6447461 62.1351172 19.4334766 62.1351172L24.7927148 62.1351172C25.581582 62.1351172 26.2211523 61.4955469 26.2211523 60.7066797 26.2211523 59.9178125 25.5814453 59.2782422 24.7927148 59.2782422zM40.2059766 27.2814063C39.3256445 27.2814063 38.6092383 27.9976758 38.6092383 28.8781445 38.6092383 29.7584766 39.3256445 30.4747461 40.2059766 30.4747461 41.0863086 30.4747461 41.8025781 29.7584766 41.8025781 28.8781445 41.8025781 27.9976758 41.0863086 27.2814063 40.2059766 27.2814063zM29.7870508 27.2814063C28.9067188 27.2814063 28.1904492 27.9976758 28.1904492 28.8781445 28.1904492 29.7584766 28.9067188 30.4747461 29.7870508 30.4747461 30.6673828 30.4747461 31.3837891 29.7584766 31.3837891 28.8781445 31.3836523 27.9978125 30.6673828 27.2814063 29.7870508 27.2814063zM36.3982227 34.0116602L33.6066992 34.0116602C32.8179687 34.0116602 32.1782617 34.6512305 32.1782617 35.4400977 32.1782617 36.9973242 33.4452344 38.2644336 35.0025977 38.2644336 36.5598242 38.2644336 37.8267969 36.9974609 37.8267969 35.4400977 37.8266602 34.6510938 37.1869531 34.0116602 36.3982227 34.0116602z"/>
    <path d="M63.9247656,65.4204687 L55.9998633,65.4204687 L55.9998633,55.7621094 C55.9998633,52.9776953 54.3194531,50.3331445 51.91375,49.3305859 L42.7206445,45.5002734 C42.39375,45.3641016 42.1825195,45.0473242 42.1825195,44.6930859 L42.1825195,42.4689453 L45.9164453,40.3280664 C45.9424219,40.3130273 45.9679883,40.2973047 45.9930078,40.2807617 C47.8625,39.0461914 49.0900977,36.8504883 49.2768555,34.4073242 C49.2797266,34.3712305 49.280957,34.3347266 49.280957,34.2984961 L49.280957,33.1125977 C51.135957,32.5092578 52.4804492,30.7636328 52.4804492,28.7099805 C52.4804492,26.6563281 51.1358203,24.9108398 49.280957,24.3073633 L49.280957,23.1508594 L50.7314062,23.1508594 C51.7995898,23.1508594 52.6685742,22.2820117 52.6685742,21.2138281 L52.6685742,18.365293 C52.6685742,17.4380664 52.0138281,16.6610938 51.1422461,16.4720117 C50.6269531,12.8866992 48.9408008,9.56921875 46.3148437,7.02132813 C44.4349609,5.19722656 42.1596875,3.85396484 39.6805664,3.09572266 L39.6805664,2.08222656 C39.6805664,0.979042969 38.8114453,0.0817578125 37.7432617,0.0817578125 L32.2496289,0.0817578125 C31.1814453,0.0817578125 30.3124609,0.979179688 30.3124609,2.08222656 L30.3124609,3.01519531 C27.7272461,3.75634766 25.3587305,5.12736328 23.4067969,7.02119141 C20.760332,9.58917969 19.0681641,12.9387891 18.5675,16.5563672 C17.8411133,16.8360937 17.3244531,17.5412891 17.3244531,18.3648828 L17.3244531,21.213418 C17.3244531,22.2816016 18.1935742,23.1504492 19.2616211,23.1504492 L20.7120703,23.1504492 L20.7120703,24.3069531 C18.8570703,24.910293 17.5125781,26.655918 17.5125781,28.7095703 C17.5125781,30.7632227 18.857207,32.5087109 20.7120703,33.1121875 L20.7120703,34.2980859 C20.7120703,34.3343164 20.7134375,34.3708203 20.7161719,34.4069141 C20.90375,36.8600586 22.1227344,39.0557617 23.9770508,40.2803516 C24.0026172,40.2973047 24.0285937,40.3133008 24.0553906,40.3284766 L27.8106445,42.4752344 L27.8106445,44.6926758 C27.8106445,45.0467773 27.5994141,45.3635547 27.2725195,45.4998633 L18.0794141,49.3303125 C15.6735742,50.3327344 13.9933008,52.9775586 13.9933008,55.7616992 L13.9933008,65.4200586 L12.985957,65.4200586 L12.985957,43.840918 C15.8519922,44.0592578 18.5970312,44.9279688 20.8363477,46.3447852 C21.0695898,46.4924414 21.3348242,46.5661328 21.6000586,46.5661328 C21.8700781,46.5661328 22.1398242,46.489707 22.3758008,46.3371289 C22.8435156,46.0345703 23.0928906,45.487832 23.0142773,44.9361719 C22.3405273,40.2076172 17.4152344,36.6419922 11.5575195,36.6419922 C5.69980469,36.6419922 0.774511719,40.2080273 0.100625,44.936582 C0.0220117187,45.4881055 0.271386719,46.0348438 0.739101562,46.3375391 C1.20695312,46.6400977 1.80769531,46.6431055 2.27855469,46.3450586 C4.51787109,44.9282422 7.26291016,44.0595313 10.1289453,43.8411914 L10.1289453,65.4204687 L6.06826172,65.4204687 C5.27953125,65.4204687 4.63982422,66.0600391 4.63982422,66.8489062 C4.63982422,67.6377734 5.27953125,68.2773438 6.06826172,68.2773438 L63.9246289,68.2773438 C64.7133594,68.2773438 65.3530664,67.6377734 65.3530664,66.8489062 C65.3530664,66.0600391 64.7134961,65.4204687 63.9247656,65.4204687 Z M4.70421875,42.0423828 C4.98285156,41.7718164 5.29087891,41.5162891 5.62625,41.2783984 C7.24376953,40.1310547 9.35033203,39.4991406 11.5575195,39.4991406 C13.764707,39.4991406 15.8712695,40.1310547 17.4887891,41.2783984 C17.8241602,41.5162891 18.1321875,41.7719531 18.4108203,42.0423828 C16.2691211,41.3076562 13.9551562,40.9279883 11.5573828,40.9279883 C9.15960937,40.9279883 6.84591797,41.307793 4.70421875,42.0423828 Z M20.1814648,20.2942578 L20.1814648,19.2512305 C20.7894531,19.1164258 21.2555273,18.5936133 21.2966797,17.9477539 C21.5117383,14.5807813 22.9676563,11.4285938 25.3964648,9.07197266 C27.2428516,7.28041016 29.5384961,6.05554688 32.0356641,5.52945313 C32.6965625,5.39013672 33.1696094,4.80703125 33.1696094,4.13177734 L33.1696094,2.93890625 L36.8238281,2.93890625 L36.8238281,4.19166016 C36.8238281,4.85720703 37.2833398,5.43443359 37.9317969,5.58359375 C40.332168,6.13607422 42.5430469,7.34234375 44.3255859,9.07197266 C46.7543945,11.4285938 48.2101758,14.5806445 48.4253711,17.9477539 C48.4725391,18.6867188 49.0758789,19.2647656 49.8118359,19.2845898 L49.8118359,20.2942578 L20.1814648,20.2942578 Z M25.5166406,37.873418 C24.4252148,37.1341797 23.7004687,35.7827148 23.569082,34.2409375 L23.569082,31.9096094 C23.569082,31.1207422 22.929375,30.4811719 22.1406445,30.4811719 C21.1640625,30.4811719 20.3695898,29.6865625 20.3695898,28.7101172 C20.3695898,27.7336719 21.1641992,26.9390625 22.1406445,26.9390625 C22.929375,26.9390625 23.569082,26.2994922 23.569082,25.510625 L23.569082,23.1512695 L46.4239453,23.1512695 L46.4239453,25.510625 C46.4239453,26.2994922 47.0636523,26.9390625 47.8523828,26.9390625 C48.8289648,26.9390625 49.6234375,27.7336719 49.6234375,28.7101172 C49.6234375,29.6865625 48.8288281,30.4811719 47.8523828,30.4811719 C47.0636523,30.4811719 46.4239453,31.1207422 46.4239453,31.9096094 L46.4239453,34.2406641 C46.2941992,35.7512695 45.5432031,37.1355469 44.4525977,37.8738281 L36.7834961,42.27125 C36.7575195,42.2862891 36.7319531,42.3020117 36.7069336,42.3185547 C35.6358789,43.0258008 34.3575586,43.0258008 33.2865039,42.3185547 C33.2609375,42.3017383 33.2349609,42.2856055 33.2081641,42.2704297 L25.5166406,37.873418 Z M33.5752539,65.4206055 L16.8501758,65.4206055 L16.8501758,55.7621094 C16.8501758,54.1521094 17.8510938,52.520918 19.1783594,51.9677539 L26.7602344,48.8085937 L28.9206641,54.8599023 C29.0955273,55.3496289 29.5225,55.7053711 30.0356055,55.7893164 C30.1125781,55.8018945 30.1895508,55.8080469 30.2661133,55.8080469 C30.6996484,55.8080469 31.1148633,55.6103516 31.3883008,55.2632227 L33.5752539,52.4856445 L33.5752539,65.4206055 Z M29.3490039,47.5633594 C30.2226367,48.3825781 31.2589648,48.9979492 32.3904492,49.371875 L30.742168,51.4655859 L29.3490039,47.5633594 Z M30.6649219,44.7626758 C30.665332,44.7394336 30.6675195,44.7166016 30.6675195,44.6930859 L30.6675195,44.10875 L31.7529297,44.7293164 C32.755625,45.3805078 33.8760352,45.7060352 34.996582,45.7060352 C36.1174023,45.7060352 37.2382227,45.3802344 38.2410547,44.7287695 L39.3253711,44.1069727 L39.3253711,44.6932227 C39.3253711,44.7223438 39.3279687,44.750918 39.3285156,44.7797656 C38.3039453,46.1354687 36.7200586,46.9337695 35.003418,46.9337695 C33.2784375,46.9337695 31.689082,46.129043 30.6649219,44.7626758 Z M40.6585156,47.5626758 L39.2650781,51.4655859 L37.6163867,49.3714648 C38.7478711,48.9974023 39.7847461,48.3818945 40.6585156,47.5626758 Z M53.1429883,65.4204687 L36.4319922,65.4204687 L36.4319922,52.4853711 L38.619082,55.2632227 C38.8925195,55.6104883 39.3077344,55.8080469 39.7412695,55.8080469 C39.8176953,55.8080469 39.8948047,55.8018945 39.9717773,55.7893164 C40.4848828,55.7055078 40.9118555,55.3494922 41.0867187,54.8599023 L43.2453711,48.8137891 L50.8149414,51.9677539 C52.1420703,52.5206445 53.1429883,54.1519727 53.1429883,55.7621094 L53.1429883,65.4204687 Z"/>
    <path d="M35.0216016 8.59892578C32.2025977 8.59892578 29.9091406 10.8923828 29.9091406 13.7113867 29.9091406 16.5303906 32.2025977 18.8238477 35.0216016 18.8238477 37.8406055 18.8238477 40.1340625 16.5303906 40.1340625 13.7113867 40.1340625 10.8923828 37.8406055 8.59892578 35.0216016 8.59892578zM35.0216016 15.9669727C33.7778711 15.9669727 32.7660156 14.9551172 32.7660156 13.7113867 32.7660156 12.4676563 33.7778711 11.4558008 35.0216016 11.4558008 36.265332 11.4558008 37.2771875 12.4676562 37.2771875 13.7113867 37.2773242 14.9551172 36.265332 15.9669727 35.0216016 15.9669727zM64.9353906 4.42654297L55.9216602 4.42654297C53.1289063 4.42654297 50.8570508 6.69839844 50.8570508 9.49115234 50.8570508 11.7877539 52.3941797 13.7310742 54.4932227 14.3491797L54.4932227 18.4009766C54.4932227 18.9520898 54.8057617 19.429375 55.2629492 19.6676758L55.2629492 29.5436914C55.2629492 30.8974805 55.7869922 32.1304102 56.642168 33.0524414L56.642168 38.2682617C56.642168 39.0571289 57.281875 39.6966992 58.0706055 39.6966992L59.0000195 39.6966992 59.0000195 42.5963672C59.0000195 43.3852344 59.6397266 44.0248047 60.428457 44.0248047 61.2171875 44.0248047 61.8568945 43.3853711 61.8568945 42.5963672L61.8568945 39.6966992 62.7863086 39.6966992C63.5750391 39.6966992 64.2147461 39.0572656 64.2147461 38.2682617L64.2147461 33.0524414C65.0697852 32.1304102 65.5939648 30.8973438 65.5939648 29.5436914L65.5939648 19.6991211C66.0861523 19.4735352 66.4289063 18.9779297 66.4289063 18.4011133L66.4289063 14.3308594C68.4948633 13.6919727 70 11.7641016 70 9.49128906 70 6.69867188 67.7281445 4.42654297 64.9353906 4.42654297zM59.499043 36.8399609L59.499043 34.6240234C59.8007812 34.6791211 60.1111328 34.7094727 60.428457 34.7094727 60.7457813 34.7094727 61.0562695 34.6792578 61.3578711 34.6240234L61.3578711 36.8399609 59.499043 36.8399609zM62.7372266 29.5438281C62.7372266 30.8168164 61.701582 31.8524609 60.4285937 31.8524609 59.1556055 31.8524609 58.1199609 30.8168164 58.1199609 29.5438281L58.1199609 19.8295508 62.7372266 19.8295508 62.7372266 29.5438281zM63.5720312 16.9726758L57.3500977 16.9726758 57.3500977 14.5558984 63.5720312 14.5558984 63.5720312 16.9726758zM64.9353906 11.6990234L55.9216602 11.6990234C54.7043164 11.6990234 53.7139258 10.7084961 53.7139258 9.49128906 53.7139258 8.27394531 54.7044531 7.28355469 55.9216602 7.28355469L64.9353906 7.28355469C66.1527344 7.28355469 67.143125 8.27408203 67.143125 9.49128906 67.143125 10.7084961 66.1525977 11.6990234 64.9353906 11.6990234z"/>
  </g>
</svg>
