<svg xmlns="http://www.w3.org/2000/svg" width="30" height="38" viewBox="0 0 30 38">
  <g fill="none" fill-rule="evenodd" transform="translate(-5 -1)">
    <rect width="40" height="40"/>
    <g fill="#FFF" fill-rule="nonzero" transform="translate(5 1.667)">
      <polygon points="23.333 20 17.5 20 15.012 13.333 12.5 20 6.667 20 11.667 23.33 9.167 30 15 25.837 20.833 30 18.333 23.33"/>
      <path d="M22.3566667,0 L3.33333333,0 C1.495,0 0,1.49666667 0,3.33333333 L0,33.3333333 C0,35.1716667 1.495,36.6666667 3.33333333,36.6666667 L26.6666667,36.6666667 C28.505,36.6666667 30,35.1716667 30,33.3333333 L30,7.64333333 L22.3566667,0 Z M3.33333333,33.3333333 L3.33333333,3.33333333 L20,3.33333333 L20,10 L26.6666667,10 L26.6683333,33.3333333 L3.33333333,33.3333333 Z"/>
    </g>
  </g>
</svg>
