<svg xmlns="http://www.w3.org/2000/svg" width="40" height="40" viewBox="0 0 40 40">
  <path fill="#F2F2F2" fill-rule="evenodd" d="M4,0 L36,0 C38.209139,0 40,1.790861 40,4 L40,36 C40,38.209139 38.209139,40 36,40 L4,40 C1.790861,40 0,38.209139 0,36 L0,4 C0,1.790861 1.790861,0 4,0 Z M28.585,11.073 L8.468,19.112 C8.17425728,19.2336055 7.9876115,19.5255931 8.00056789,19.8432483 C8.01352429,20.1609034 8.2233295,20.4367208 8.526,20.534 L13.639,22.082 L15.546,28.289 C15.6322695,28.5882421 15.87191,28.8185474 16.174342,28.8928652 C16.476774,28.967183 16.7958631,28.8741763 17.011,28.649 L19.654,25.881 L24.84,29.781 C25.1377433,30.003802 25.5295557,30.0567245 25.8757392,29.9208984 C26.2219228,29.7850722 26.4732077,29.4798286 26.54,29.114 L29.975,12.276 C30.0585527,11.9011811 29.9295881,11.510751 29.6392172,11.2594444 C29.3488463,11.0081378 28.9439515,10.9365298 28.585,11.073 Z M26.063,14.81 L16.719,23.283 C16.6247539,23.3679707 16.5652703,23.4848007 16.552,23.611 L16.193,26.89 C16.1836581,26.9321465 16.1483249,26.9635405 16.105372,26.9678585 C16.0624191,26.9721765 16.0215441,26.9484437 16.004,26.909 L14.523,22.018 C14.4551364,21.795395 14.5428279,21.554753 14.738,21.428 L25.773,14.41 C25.8832722,14.3440579 26.0256479,14.3732559 26.1010642,14.4772785 C26.1764805,14.581301 26.1599612,14.7256979 26.063,14.81 Z"/>
</svg>
