<svg xmlns="http://www.w3.org/2000/svg" width="40" height="40" viewBox="0 0 40 40">
  <path fill="#F2F2F2" fill-rule="evenodd" d="M4,0 L36,0 C38.209139,0 40,1.790861 40,4 L40,36 C40,38.209139 38.209139,40 36,40 L4,40 C1.790861,40 0,38.209139 0,36 L0,4 C0,1.790861 1.790861,0 4,0 Z M32.31,10.388 C31.3070785,11.0031426 30.2045618,11.4386671 29.052,11.675 C28.0981316,10.6113921 26.7376777,10.0025862 25.309,10 C22.4296207,10.048756 20.1338923,12.4205612 20.179,15.3 C20.1786881,15.7060069 20.2232927,16.1108022 20.312,16.507 C16.1531233,16.2754116 12.2980531,14.2550645 9.741,10.967 C9.28409146,11.780726 9.04536421,12.6987752 9.048,13.632 C9.03722192,15.3883932 9.88988858,17.0380285 11.329,18.045 C10.5119446,18.0165836 9.71432133,17.7882498 9.006,17.38 L9.006,17.446 C8.97724318,19.9330424 10.6921872,22.1012187 13.119,22.646 C12.679252,22.7693003 12.224707,22.8318802 11.768,22.832 C11.4438377,22.8302939 11.1206241,22.7968003 10.803,22.732 C11.4388541,24.8635606 13.3686581,26.3480872 15.592,26.416 C13.7934318,27.8827192 11.5438,28.6838127 9.223,28.684 C8.81427946,28.6838236 8.40591788,28.6597827 8,28.612 C10.3276858,30.1662009 13.0631336,30.9970645 15.862,31 C25.295,31 30.454,22.92 30.454,15.912 L30.437,15.225 C31.4488199,14.4724544 32.3169836,13.5439968 33,12.484 C32.0672035,12.9125573 31.0738384,13.1945448 30.055,13.32 C31.1340777,12.6448497 31.9344283,11.6042165 32.31,10.388 Z"/>
</svg>
