<svg xmlns="http://www.w3.org/2000/svg" width="70" height="70" viewBox="0 0 70 70">
  <g fill="#FFF">
    <path d="M3.51640625 13.9380664L1.4459375 13.9380664C.657890625 13.9380664.0187304688 14.5769531.0187304688 15.3652734.0187304688 16.153457.657890625 16.7924805 1.4459375 16.7924805L3.51640625 16.7924805C4.30445313 16.7924805 4.94361328 16.1535937 4.94361328 15.3652734 4.94361328 14.5769531 4.30458984 13.9380664 3.51640625 13.9380664zM15.3691016.0150390625C14.5810547.0150390625 13.9418945.653925781 13.9418945 1.44224609L13.9418945 3.51271484C13.9418945 4.30089844 14.5810547 4.93992187 15.3691016 4.93992187 16.1571484 4.93992187 16.7963086 4.30103516 16.7963086 3.51271484L16.7963086 1.44210938C16.7963086.653925781 16.1571484.0150390625 15.3691016.0150390625zM7.99722656 5.97488281L6.53324219 4.51089844C5.97583984 3.95363281 5.07240234 3.95376953 4.51472656 4.51089844 3.95746094 5.06816406 3.95746094 5.971875 4.51472656 6.52927734L5.97871094 7.99339844C6.25748047 8.27216797 6.62251953 8.41148438 6.98783203 8.41148438 7.35287109 8.41148438 7.71832031 8.27203125 7.99708984 7.99326172 8.55449219 7.43585937 8.55449219 6.53228516 7.99722656 5.97488281zM26.2234766 4.51089844C25.6660742 3.95363281 24.7626367 3.95376953 24.2049609 4.51089844L22.7408398 5.97501953C22.1835742 6.53228516 22.1835742 7.43599609 22.7408398 7.99339844 23.0196094 8.27216797 23.3846484 8.41148438 23.7499609 8.41148438 24.1151367 8.41148438 24.4804492 8.27203125 24.7592187 7.99326172L26.2233398 6.52927734C26.7808789 5.971875 26.7810156 5.06816406 26.2234766 4.51089844zM7.89632813 22.8379102C7.33878906 22.2806445 6.43535156 22.2806445 5.8778125 22.8379102L4.51472656 24.2009961C3.95746094 24.7583984 3.95746094 25.6621094 4.51472656 26.2195117 4.79349609 26.4982813 5.15853516 26.6374609 5.52384766 26.6374609 5.88916016 26.6374609 6.25433594 26.4981445 6.53310547 26.2195117L7.89619141 24.8564258C8.45359375 24.2990234 8.45359375 23.3953125 7.89632813 22.8379102zM68.572793 31.1141797L54.5238477 31.1141797C53.7358008 31.1141797 53.0966406 31.7530664 53.0966406 32.5413867 53.0966406 33.329707 53.7356641 33.9685937 54.5238477 33.9685937L67.1455859 33.9685937 67.1455859 53.3579102 58.1988477 53.3579102C57.4108008 53.3579102 56.7716406 53.9967969 56.7716406 54.7851172 56.7716406 55.5734375 57.4106641 56.2123242 58.1988477 56.2123242L68.572793 56.2123242C69.3608398 56.2123242 70 55.5734375 70 54.7851172L70 32.5413867C70 31.7532031 69.3609766 31.1141797 68.572793 31.1141797z"/>
    <path d="M64.8212305 34.7722266L51.5760547 34.7722266C50.7880078 34.7722266 50.1488477 35.4111133 50.1488477 36.1994336L50.1488477 48.7586914C50.1488477 49.546875 50.7878711 50.1858984 51.5760547 50.1858984L64.8212305 50.1858984C65.6094141 50.1858984 66.2484375 49.5470117 66.2484375 48.7586914L66.2484375 36.1994336C66.2483008 35.4111133 65.6092773 34.7722266 64.8212305 34.7722266zM63.3941602 47.3314844L53.0033984 47.3314844 53.0033984 37.6266406 63.3941602 37.6266406 63.3941602 47.3314844zM40.1709766 29.0248437C39.2914648 29.0248437 38.5756055 29.7404297 38.5756055 30.6202148 38.5756055 31.4997266 39.2913281 32.2153125 40.1709766 32.2153125 41.0504883 32.2153125 41.7659375 31.4997266 41.7660742 30.6202148 41.7662109 29.7404297 41.0504883 29.0248437 40.1709766 29.0248437zM29.7610742 29.0248437C28.8815625 29.0248437 28.1659766 29.7404297 28.1659766 30.6202148 28.1659766 31.4997266 28.8815625 32.2153125 29.7610742 32.2153125 30.6405859 32.2153125 31.3564453 31.4997266 31.3564453 30.6202148 31.3564453 29.7404297 30.6407227 29.0248437 29.7610742 29.0248437zM36.3666406 35.7489453L33.5773047 35.7489453C32.7892578 35.7489453 32.1500977 36.3879688 32.1500977 37.1761523 32.1500977 38.7320117 33.4159766 39.9980273 34.9719727 39.9980273 36.5279688 39.9980273 37.7937109 38.7321484 37.7938477 37.1761523 37.7938477 36.3879688 37.1548242 35.7489453 36.3666406 35.7489453zM1.4459375 67.1306836L1.42720703 67.1306836C.639023438 67.1306836 0 67.7695703 0 68.5578906 0 69.3462109.639023438 69.9850977 1.42720703 69.9850977L1.4459375 69.9850977C2.23398437 69.9850977 2.87314453 69.3462109 2.87314453 68.5578906 2.87314453 67.7695703 2.23398437 67.1306836 1.4459375 67.1306836zM68.5048437 67.1305469L68.4861133 67.1305469C67.6980664 67.1305469 67.0589062 67.7694336 67.0589062 68.5577539 67.0589062 69.3460742 67.6979297 69.9849609 68.4861133 69.9849609L68.5048437 69.9849609C69.2928906 69.9849609 69.9320508 69.3460742 69.9320508 68.5577539 69.9320508 67.7694336 69.2930273 67.1305469 68.5048437 67.1305469zM13.8507031 33.5917969L1.43417969 33.5917969C.646132813 33.5917969.00697265625 34.2306836.00697265625 35.0190039L.00697265625 51.5744141C.00697265625 52.3625977.645996094 53.0016211 1.43417969 53.0016211L13.8507031 53.0016211C14.63875 53.0016211 15.2779102 52.3627344 15.2779102 51.5744141L15.2779102 35.0190039C15.2779102 34.2306836 14.63875 33.5917969 13.8507031 33.5917969zM12.4234961 50.147207L2.86138672 50.147207 2.86138672 43.5821094 12.4234961 43.5821094 12.4234961 50.147207zM12.4234961 40.7276953L2.86138672 40.7276953 2.86138672 36.4460742 12.4234961 36.4460742 12.4234961 40.7276953zM49.1019922 57.0452148C48.3139453 57.0452148 47.6747852 57.6841016 47.6747852 58.4724219L47.6747852 58.4911523C47.6747852 59.2793359 48.3138086 59.9183594 49.1019922 59.9183594 49.8901758 59.9183594 50.5291992 59.2794727 50.5291992 58.4911523L50.5291992 58.4724219C50.5291992 57.6841016 49.8901758 57.0452148 49.1019922 57.0452148zM15.3691016 25.9333594C14.5810547 25.9333594 13.9418945 26.5722461 13.9418945 27.3605664L13.9418945 29.2883008C13.9418945 30.0764844 14.5807812 30.7156445 15.3691016 30.7156445 16.1571484 30.7156445 16.7963086 30.0767578 16.7963086 29.2884375L16.7963086 27.3605664C16.7963086 26.5723828 16.1571484 25.9333594 15.3691016 25.9333594z"/>
    <path d="M63.8691211,67.1306836 L55.9510547,67.1306836 L55.9510547,57.4808008 C55.9510547,54.6988477 54.2721484,52.0564844 51.8684961,51.0548828 L42.683457,47.2278516 C42.3569727,47.0918164 42.1458789,46.7753125 42.1458789,46.4213477 L42.1458789,44.1989844 L45.8765234,42.0598828 C45.9025,42.0449805 45.9280664,42.0292578 45.9530859,42.0125781 C47.8209375,40.7789648 49.0474414,38.5851758 49.2340625,36.1441992 C49.2369336,36.1081055 49.2381641,34.8505664 49.2381641,34.8505664 C51.0915234,34.2477734 52.4349219,32.5036523 52.4349219,30.4517773 C52.4349219,28.3999023 51.0913867,26.6560547 49.2380273,26.0532617 L49.2380273,23.6177539 C50.3691016,22.221582 53.6359961,17.7176562 52.9022266,13.0767383 C52.4681445,10.3307422 50.7566992,8.07775391 47.8157422,6.38080078 C43.5298828,3.90769531 39.0764062,4.01132812 34.9369727,6.68076172 C33.0330273,7.90863281 31.6275586,9.41171875 30.8321289,10.3805078 C29.3432617,9.80123047 26.6162695,9.12419922 23.6405859,10.2589648 C23.2461523,9.61966797 22.7798047,9.02726562 22.2435937,8.49091797 C20.4073242,6.65464844 17.9659375,5.64347656 15.3691016,5.64347656 C12.7722656,5.64347656 10.3310156,6.65464844 8.49474609,8.49091797 C6.65847656,10.3271875 5.64716797,12.7684375 5.64716797,15.3652734 C5.64716797,17.9619727 6.65847656,20.4033594 8.49474609,22.2396289 C10.3773633,24.1221094 12.8713867,25.0824219 15.3755273,25.0824219 C17.1258008,25.0824219 18.8803125,24.6112891 20.4350781,23.6598633 C20.5292773,23.7894727 20.6167773,23.9056836 20.6944336,24.0053516 L20.6944336,26.0532617 C18.8410742,26.6560547 17.4976758,28.4001758 17.4976758,30.4520508 C17.4976758,32.5039258 18.8410742,34.2479102 20.6944336,34.8508398 C20.6944336,34.8508398 20.6958008,36.1083789 20.6985352,36.1444727 C20.8859766,38.5955664 22.1038672,40.7892188 23.956543,42.0128516 C23.9821094,42.029668 24.0080859,42.0456641 24.0347461,42.0609766 L27.7867187,44.205957 L27.7867187,46.4216211 C27.7867187,46.7754492 27.575625,47.0919531 27.2491406,47.228125 L18.0641016,51.055293 C15.6603125,52.0568945 13.981543,54.6993945 13.981543,57.4810742 L13.981543,67.130957 L6.06306641,67.130957 C5.27501953,67.130957 4.63585938,67.7698438 4.63585938,68.5581641 C4.63585938,69.3464844 5.27488281,69.9853711 6.06306641,69.9853711 L63.8691211,69.9853711 C64.657168,69.9853711 65.2963281,69.3464844 65.2963281,68.5581641 C65.2963281,67.7698438 64.657168,67.1306836 63.8691211,67.1306836 Z M23.3976367,13.559082 C26.9299023,11.327832 30.402832,13.3015039 30.5424219,13.3828516 C31.1968945,13.7735937 32.0430469,13.5812305 32.4641406,12.9457617 C32.479043,12.9234766 33.9664063,10.7030273 36.4836719,9.07976562 C39.7106445,6.99890625 43.0430273,6.92275391 46.3889453,8.85322266 C48.5741211,10.114043 49.7817578,11.6385937 50.0813086,13.5141016 C50.547793,16.4350977 48.698125,19.5291797 47.5681445,21.0976172 C47.5302734,21.0672656 47.4924023,21.0365039 47.4539844,21.0057422 C45.6266016,19.5339648 43.3526953,17.7023438 40.8719336,17.7023438 C37.8907813,17.7023438 36.6365234,19.2569727 35.6286328,20.5060352 C34.6467188,21.7229688 33.9372852,22.6023437 31.5477148,22.6023437 C29.2843359,22.6023437 28.0236523,22.0781641 26.9113086,21.6156445 C26.1452734,21.2970898 25.3666602,20.9733398 24.4749805,20.9733398 C23.8613867,20.9733398 23.1940625,21.1267383 22.4411523,21.5408594 C21.7108008,20.435625 20.7410547,18.5804883 20.9897461,16.8071094 C21.1685742,15.532207 21.9560742,14.4697656 23.3976367,13.559082 Z M18.1629492,16.410625 C17.9194531,18.1464062 18.3771875,19.8243555 18.9954297,21.1952344 C16.3213477,22.8634766 12.7866211,22.4947461 10.513125,20.2211133 C9.2159375,18.9240625 8.50144531,17.1994922 8.50144531,15.3651367 C8.50144531,13.5307812 9.2159375,11.8062109 10.513125,10.5091602 C11.8101758,9.21210937 13.5347461,8.49789062 15.3689648,8.49789062 C17.203457,8.49789062 18.9278906,9.21224609 20.2249414,10.5091602 C20.5731641,10.8575195 20.8798242,11.2391016 21.1435547,11.6491211 C19.4280078,12.937832 18.4257227,14.5360742 18.1629492,16.410625 Z M25.4943555,39.6074219 C24.40375,38.8690039 23.6798242,37.5186328 23.5485742,35.9780859 L23.5485742,33.6488086 C23.5485742,32.860625 22.9095508,32.2216016 22.1213672,32.2216016 C21.1456055,32.2216016 20.3518164,31.4276758 20.3518164,30.4520508 C20.3518164,29.4764258 21.1457422,28.6825 22.1213672,28.6825 C22.9094141,28.6825 23.5485742,28.0436133 23.5485742,27.255293 L23.5485742,24.1910156 C24.3292383,23.6368945 24.6658398,23.7733398 25.8155078,24.2514453 C27.0388672,24.7600391 28.7144922,25.4570312 31.5478516,25.4570312 C35.301875,25.4570312 36.7747461,23.6315625 37.8501758,22.2988281 C38.726543,21.2127344 39.2555078,20.5570313 40.8720703,20.5570313 C42.3461719,20.5570313 44.1857227,22.0386523 45.6636523,23.2290625 C45.9107031,23.4279883 46.1496875,23.6200781 46.3834766,23.8035547 L46.3834766,27.2555664 C46.3834766,28.04375 47.0225,28.6827734 47.8106836,28.6827734 C48.7864453,28.6827734 49.5802344,29.4766992 49.5802344,30.4523242 C49.5802344,31.4279492 48.7864453,32.2216016 47.8106836,32.2216016 C47.0226367,32.2216016 46.3834766,32.8604883 46.3834766,33.6488086 L46.3834766,35.9778125 C46.2538672,37.4869141 45.503418,38.8700977 44.4139062,39.607832 L36.7513672,44.0014258 C36.7253906,44.0164648 36.6998242,44.0320508 36.6748047,44.0487305 C35.604707,44.755293 34.3274805,44.755293 33.2573828,44.0487305 C33.2318164,44.0319141 33.2058398,44.0157813 33.1791797,44.0006055 L25.4943555,39.6074219 Z M39.2943359,46.5078906 C38.2705859,47.8623633 36.6882031,48.6601172 34.9729297,48.6601172 C33.2493164,48.6601172 31.6614648,47.8560742 30.638125,46.4909375 C30.6385352,46.4676953 30.6407227,46.4448633 30.6407227,46.4214844 L30.6407227,45.8375586 L31.7251758,46.4575781 C32.7269141,47.1082227 33.8463672,47.4334766 34.9660938,47.4334766 C36.085957,47.4334766 37.2058203,47.1079492 38.207832,46.4570313 L39.2911914,45.835918 L39.2911914,46.4216211 C39.2913281,46.450332 39.2937891,46.4789063 39.2943359,46.5078906 Z M23.2700781,55.8623242 L23.2700781,67.1306836 L16.8355469,67.1306836 L16.8355469,57.4806641 C16.8355469,55.8720312 17.8356445,54.242207 19.1616797,53.6895898 L28.3467188,49.8624219 C28.7023242,49.714082 29.0255273,49.5151562 29.3100391,49.2768555 C30.3216211,50.2295117 31.5529102,50.9079102 32.8978125,51.2532617 L30.3980469,51.2532617 C29.7450781,51.2532617 29.1753711,51.6963672 29.0148633,52.3295117 L28.4805664,54.4351172 L24.6972852,54.4351172 C23.9091016,54.4351172 23.2700781,55.0741406 23.2700781,55.8623242 Z M38.4375195,54.1075391 L38.5206445,54.4351172 L31.4253516,54.4351172 L31.5084766,54.1075391 L38.4375195,54.1075391 Z M43.8216406,67.1306836 L26.1244922,67.1306836 L26.1244922,57.2895313 L43.8216406,57.2895313 L43.8216406,67.1306836 Z M50.5293359,67.1306836 L50.5293359,63.1082812 C50.5293359,62.3200977 49.8901758,61.6810742 49.1021289,61.6810742 C48.314082,61.6810742 47.6749219,62.3199609 47.6749219,63.1082812 L47.6749219,67.1306836 L46.675918,67.1306836 L46.675918,55.8623242 C46.675918,55.0741406 46.0368945,54.4351172 45.2487109,54.4351172 L41.4654297,54.4351172 L40.9311328,52.3295117 C40.770625,51.6965039 40.2007812,51.2532617 39.5479492,51.2532617 L37.0473633,51.2532617 C38.3891211,50.9085937 39.6183594,50.2323828 40.6287109,49.2831445 C40.9117187,49.5189844 41.2325977,49.7155859 41.585332,49.8625586 L50.7703711,53.6895898 C52.0964062,54.2420703 53.0963672,55.8718945 53.0963672,57.4806641 L53.0963672,67.1306836 L50.5293359,67.1306836 Z"/>
    <path d="M34.9730664,58.1187305 C32.7170703,58.1187305 30.8817578,59.954043 30.8817578,62.2100391 C30.8817578,64.4660352 32.7170703,66.3013477 34.9730664,66.3013477 C37.2290625,66.3013477 39.064375,64.4660352 39.064375,62.2100391 C39.064375,59.954043 37.2287891,58.1187305 34.9730664,58.1187305 Z M34.9730664,63.4470703 C34.2909766,63.4470703 33.7361719,62.8921289 33.7361719,62.2101758 C33.7361719,61.5282227 34.2911133,60.9732812 34.9730664,60.9732812 C35.6550195,60.9732812 36.2099609,61.5282227 36.2099609,62.2101758 C36.2099609,62.8921289 35.6550195,63.4470703 34.9730664,63.4470703 Z"/>
  </g>
</svg>
