<svg xmlns="http://www.w3.org/2000/svg" width="34" height="40" viewBox="0 0 34 40">
  <g fill="none" fill-rule="evenodd" transform="translate(-3)">
    <rect width="40" height="40"/>
    <g fill="#FFF" fill-rule="nonzero" transform="translate(3.333)">
      <path d="M25.69,0 L13.3333333,0 C11.495,0 10,1.49666667 10,3.33333333 L10,26.6666667 C10,28.505 11.495,30 13.3333333,30 L30,30 C31.8383333,30 33.3333333,28.505 33.3333333,26.6666667 L33.3333333,7.64333333 L25.69,0 Z M30.0016667,26.6666667 L13.3333333,26.6666667 L13.3333333,3.33333333 L23.3333333,3.33333333 L23.3333333,10 L30,10 L30.0016667,26.6666667 Z"/>
      <path d="M8.33333333,5 L5,5 L5,31.6666667 C5,33.505 6.495,35 8.33333333,35 L28.3333333,35 L28.3333333,31.6666667 L8.33333333,31.6666667 L8.33333333,5 Z"/>
      <path d="M3.33333333,10 L0,10 L0,36.6666667 C0,38.505 1.495,40 3.33333333,40 L23.3333333,40 L23.3333333,36.6666667 L3.33333333,36.6666667 L3.33333333,10 Z"/>
    </g>
  </g>
</svg>
