<svg xmlns="http://www.w3.org/2000/svg" width="70" height="70" viewBox="0 0 70 70">
  <g fill="#FFF">
    <path d="M15.5266016 34.1438672L15.5078711 34.1438672C14.7190039 34.1438672 14.0794336 34.7834375 14.0794336 35.5723047 14.0794336 36.3611719 14.7188672 37.0007422 15.5078711 37.0007422L15.5266016 37.0007422C16.3154688 37.0007422 16.9550391 36.3611719 16.9550391 35.5723047 16.9550391 34.7834375 16.3154688 34.1438672 15.5266016 34.1438672zM10.8866406 34.1438672L6.81078125 34.1438672C6.02191406 34.1438672 5.38234375 34.7834375 5.38234375 35.5723047 5.38234375 36.3611719 6.02191406 37.0007422 6.81078125 37.0007422L10.8866406 37.0007422C11.6755078 37.0007422 12.3150781 36.3611719 12.3150781 35.5723047 12.3150781 34.7834375 11.6755078 34.1438672 10.8866406 34.1438672zM18.349707 42.4763281L6.81078125 42.4763281C6.02191406 42.4763281 5.38234375 43.1158984 5.38234375 43.9047656 5.38234375 44.6936328 6.02191406 45.3332031 6.81078125 45.3332031L18.349707 45.3332031C19.1385742 45.3332031 19.7781445 44.6937695 19.7781445 43.9047656 19.7781445 43.1158984 19.1387109 42.4763281 18.349707 42.4763281zM15.5266016 38.3099609L15.5078711 38.3099609C14.7190039 38.3099609 14.0794336 38.9495312 14.0794336 39.7383984 14.0794336 40.5272656 14.7188672 41.1668359 15.5078711 41.1668359L15.5266016 41.1668359C16.3154688 41.1668359 16.9550391 40.5274023 16.9550391 39.7383984 16.9550391 38.9495312 16.3154688 38.3099609 15.5266016 38.3099609zM10.8866406 38.3102344L6.81078125 38.3102344C6.02191406 38.3102344 5.38234375 38.949668 5.38234375 39.7386719 5.38234375 40.5275391 6.02191406 41.1671094 6.81078125 41.1671094L10.8866406 41.1671094C11.6755078 41.1671094 12.3150781 40.5276758 12.3150781 39.7386719 12.3150781 38.949668 11.6755078 38.3102344 10.8866406 38.3102344zM19.8000195 38.3102344L19.666582 38.3102344C18.8777148 38.3102344 18.2381445 38.949668 18.2381445 39.7386719 18.2381445 40.5275391 18.8777148 41.1671094 19.666582 41.1671094L19.8000195 41.1671094C20.5888867 41.1671094 21.228457 40.5276758 21.228457 39.7386719 21.228457 38.949668 20.5888867 38.3102344 19.8000195 38.3102344zM1.44716797 67.1405273L1.4284375 67.1405273C.639570312 67.1405273 0 67.7800977 0 68.5689648 0 69.357832.639570312 69.9974023 1.4284375 69.9974023L1.44716797 69.9974023C2.23603516 69.9974023 2.87560547 69.357832 2.87560547 68.5689648 2.87560547 67.7800977 2.23603516 67.1405273 1.44716797 67.1405273zM68.5645898 67.1405273L68.5458594 67.1405273C67.7569922 67.1405273 67.1174219 67.7800977 67.1174219 68.5689648 67.1174219 69.357832 67.7568555 69.9974023 68.5458594 69.9974023L68.5645898 69.9974023C69.353457 69.9974023 69.9930273 69.357832 69.9930273 68.5689648 69.9930273 67.7800977 69.353457 67.1405273 68.5645898 67.1405273zM40.2058398 29.0014648C39.3253711 29.0014648 38.6091016 29.7177344 38.6091016 30.5982031 38.6091016 31.4785352 39.3253711 32.1948047 40.2058398 32.1948047 41.0863086 32.1948047 41.8025781 31.4785352 41.8025781 30.5982031 41.8025781 29.7177344 41.0863086 29.0014648 40.2058398 29.0014648zM29.7871875 29.0014648C28.9067188 29.0014648 28.1904492 29.7177344 28.1904492 30.5982031 28.1904492 31.4785352 28.9067188 32.1948047 29.7871875 32.1948047 30.6675195 32.1948047 31.3837891 31.4785352 31.3839258 30.5982031 31.3839258 29.7177344 30.6676563 29.0014648 29.7871875 29.0014648zM36.3983594 35.731582L33.6066992 35.731582C32.817832 35.731582 32.1782617 36.3711523 32.1782617 37.1600195 32.1782617 38.7172461 33.4452344 39.9843555 35.0025977 39.9843555 36.5599609 39.9843555 37.8267969 38.7175195 37.8269336 37.1600195 37.8267969 36.3710156 37.1872266 35.731582 36.3983594 35.731582zM29.2893945 60.8678711L31.4875586 58.6698437C32.0453711 58.1118945 32.0455078 57.2073633 31.4875586 56.6496875 30.9296094 56.091875 30.0250781 56.091875 29.4672656 56.6496875L26.2591602 59.857793C25.7013477 60.4157422 25.7013477 61.3202734 26.2591602 61.8780859L29.4672656 65.0861914C29.7460352 65.3650977 30.1117578 65.5045508 30.4773437 65.5045508 30.8429297 65.5045508 31.2085156 65.3650977 31.4875586 65.0863281 32.0453711 64.5283789 32.0453711 63.6238477 31.4875586 63.0661719L29.2893945 60.8678711zM43.693125 59.8575195L40.4850195 56.6494141C39.9270703 56.0916016 39.0225391 56.0916016 38.4647266 56.6494141 37.9069141 57.2073633 37.9069141 58.1118945 38.4647266 58.669707L40.6628906 60.8677344 38.4647266 63.0657617C37.9069141 63.6237109 37.9069141 64.5282422 38.4647266 65.085918 38.7434961 65.3648242 39.1092188 65.5042773 39.4748047 65.5042773 39.8403906 65.5042773 40.2059766 65.3648242 40.4850195 65.0857813L43.693125 61.8776758C44.2508008 61.3198633 44.2508008 60.415332 43.693125 59.8575195zM35.8737695 56.2223047C35.097207 56.0795703 34.3531836 56.5928125 34.2103125 57.3685547L33.023457 63.8174414C32.8807227 64.5933203 33.3938281 65.3380273 34.169707 65.4808984 34.2570703 65.4968945 34.3440234 65.5046875 34.4298828 65.5046875 35.1056836 65.5046875 35.7062891 65.0228906 35.8331641 64.3345117L37.0200195 57.885625C37.1627539 57.1097461 36.6496484 56.3650391 35.8737695 56.2223047zM11.1704687 8.80892578C8.79443359 8.80892578 6.86136719 10.7419922 6.86136719 13.1180273L6.86136719 15.9271875C6.86136719 18.3032227 8.79443359 20.2362891 11.1704687 20.2362891 13.5465039 20.2362891 15.4795703 18.3033594 15.4795703 15.9273242L15.4795703 13.1181641C15.4795703 10.7421289 13.5465039 8.80892578 11.1704687 8.80892578zM12.6226953 15.9274609C12.6226953 16.7282227 11.9712305 17.3796875 11.1704687 17.3796875 10.369707 17.3796875 9.71824219 16.7282227 9.71824219 15.9274609L9.71824219 13.1181641C9.71824219 12.3174023 10.369707 11.6659375 11.1704687 11.6659375 11.9712305 11.6659375 12.6226953 12.3174023 12.6226953 13.1181641L12.6226953 15.9274609zM4.88441406 8.91775391C4.35066406 8.69667969 3.73611328 8.81890625 3.32773437 9.22728516L.425195313 12.1298242C-.132617187 12.6877734-.132617187 13.5923047.425195313 14.1501172.983144531 14.707793 1.88767578 14.707793 2.44535156 14.1501172L2.90923828 13.6862305 2.90923828 18.808125C2.90923828 19.5969922 3.54880859 20.2365625 4.33767578 20.2365625 5.12654297 20.2365625 5.76611328 19.5969922 5.76597656 18.8082617L5.76597656 10.2375C5.76611328 9.65972656 5.41816406 9.13896484 4.88441406 8.91775391zM58.9058203.00259765625C56.5297852.00259765625 54.5967187 1.93566406 54.5967187 4.31169922L54.5967187 7.12085938C54.5967187 9.49689453 56.5297852 11.4299609 58.9058203 11.4299609 61.2818555 11.4299609 63.2149219 9.49689453 63.2149219 7.12099609L63.2149219 4.31169922C63.2149219 1.93566406 61.2818555.00259765625 58.9058203.00259765625zM60.3580469 7.12099609C60.3580469 7.92175781 59.706582 8.57322266 58.9058203 8.57322266 58.1050586 8.57322266 57.4535937 7.92175781 57.4535937 7.12099609L57.4535937 4.31169922C57.4535937 3.5109375 58.1050586 2.85947266 58.9058203 2.85947266 59.706582 2.85947266 60.3580469 3.5109375 60.3580469 4.31169922L60.3580469 7.12099609zM69.1180273.111425781C68.5841406-.109785156 67.9698633.012578125 67.5613477.420957031L64.6589453 3.32335937C64.1011328 3.88130859 64.1011328 4.78583984 64.6589453 5.34351562 65.2168945 5.90119141 66.1214258 5.90119141 66.6792383 5.34351562L67.143125 4.87935547 67.143125 10.0013867C67.143125 10.7902539 67.7826953 11.4298242 68.5715625 11.4298242 69.3604297 11.4298242 70 10.7905273 69.9998633 10.0016602L69.9998633 1.43117187C69.9998633.853398437 69.6519141.3325 69.1180273.111425781zM66.7671484 30.0559766L58.0913867 30.0559766C56.3088477 30.0559766 54.8585352 31.5064258 54.8585352 33.2891016L54.8585352 49.7273438C54.8585352 51.5100195 56.3088477 52.9604688 58.0913867 52.9604688L66.7671484 52.9604688C68.5496875 52.9604688 70 51.5100195 70 49.7273438L70 33.2891016C70 31.5064258 68.5496875 30.0559766 66.7671484 30.0559766zM57.7155469 33.2891016C57.7155469 33.0815625 57.8842578 32.9128516 58.0915234 32.9128516L66.7672852 32.9128516C66.9745508 32.9128516 67.1432617 33.0816992 67.1432617 33.2891016L67.1432617 33.5725195 57.7156836 33.5725195 57.7156836 33.2891016 57.7155469 33.2891016zM57.7155469 36.4293945L67.143125 36.4293945 67.143125 46.1012891 57.7155469 46.1012891 57.7155469 36.4293945zM67.143125 49.7273438C67.143125 49.9348828 66.9744141 50.1035938 66.7671484 50.1035938L58.0913867 50.1035938C57.8841211 50.1035938 57.7154102 49.9347461 57.7154102 49.7273438L57.7154102 48.9581641 67.1429883 48.9581641 67.1429883 49.7273438 67.143125 49.7273438z"/>
    <path d="M63.9246289,67.1405273 L55.9998633,67.1405273 L55.9998633,57.482168 C55.9998633,54.6978906 54.3194531,52.0532031 51.9136133,51.0506445 L42.7205078,47.220332 C42.4359961,47.1017969 42.2392578,46.8461328 42.1931836,46.5482227 C42.1926367,46.5413867 42.1918164,46.5345508 42.1909961,46.5275781 C42.1859375,46.4898438 42.1823828,46.4518359 42.1823828,46.4130078 L42.1823828,44.1885938 L45.9161719,42.0477148 C45.9421484,42.0328125 45.9677148,42.0169531 45.9928711,42.0004102 C47.8623633,40.7658398 49.0900977,38.57 49.2768555,36.1268359 C49.2797266,36.0907422 49.280957,36.0542383 49.280957,36.0180078 L49.280957,34.8321094 C51.135957,34.2287695 52.4804492,32.4831445 52.4804492,30.4294922 C52.4804492,28.3758398 51.1356836,26.630625 49.2808203,26.0270117 L49.2808203,25.318125 C50.0959375,23.5447461 53.4794531,15.2002539 48.3653516,8.68478516 C46.002168,5.67328125 43.1677148,4.39345703 40.6150391,5.12613281 C38.4557031,3.52611328 35.8983789,2.74654297 32.8254883,2.74654297 C23.682832,2.74654297 18.2194141,9.74818359 18.2194141,16.5171289 C18.2194141,21.0624805 19.4777734,24.4755273 20.2818164,26.1929883 C19.139668,26.6966602 18.2392383,27.6491797 17.8029687,28.825918 L3.27933594,28.825918 C1.47492187,28.825918 0.00697265625,30.3333789 0.00697265625,32.1861914 L0.00697265625,54.0985156 C0.00697265625,54.8873828 0.646542969,55.5269531 1.43541016,55.5269531 L9.48828125,55.5269531 L9.48828125,58.4266211 L8.43472656,58.4266211 C7.64585937,58.4266211 7.00628906,59.0661914 7.00628906,59.8550586 C7.00628906,60.6439258 7.64585937,61.2834961 8.43472656,61.2834961 L13.9933008,61.2834961 L13.9933008,67.1401172 L6.06839844,67.1401172 C5.27953125,67.1401172 4.63996094,67.7796875 4.63996094,68.5685547 C4.63996094,69.3574219 5.27953125,69.9969922 6.06839844,69.9969922 L63.9246289,69.9969922 C64.7134961,69.9969922 65.3530664,69.3574219 65.3530664,68.5685547 C65.3530664,67.7796875 64.7134961,67.1405273 63.9246289,67.1405273 Z M32.8254883,5.60369141 C36.4075195,5.60369141 38.311875,6.87722656 39.4326953,7.83521484 C39.8648633,8.20462891 40.4747656,8.28228516 40.985957,8.03373047 C42.4524023,7.31992187 44.3711133,8.22267578 46.1179688,10.4487305 C49.1185352,14.2715234 48.3365039,19.1485547 47.4723047,21.9936719 C46.8423047,21.2414453 46.0091406,20.3557812 44.9342578,19.4059961 C44.2462891,18.7978711 43.3093555,18.3415039 42.3173242,17.8584766 C41.1476953,17.2887695 39.6923242,16.5798828 39.4165625,15.8616992 C39.2366406,15.3927539 38.8234766,15.0527344 38.3286914,14.9663281 C37.8336328,14.8797852 37.3299609,15.059707 37.0016992,15.4401953 C35.0716406,17.6760937 32.6723633,18.7174805 29.451543,18.7174805 C25.5043359,18.7174805 23.3269531,20.8517969 22.1954687,22.6425391 C22.145293,22.7218359 22.0970313,22.8009961 22.05,22.8800195 C21.5407227,21.2850586 21.0760156,19.1169727 21.0760156,16.5176758 C21.0761523,11.152832 25.4708398,5.60369141 32.8254883,5.60369141 Z M40.7714453,24.8404297 C37.9562695,24.8404297 35.5948633,26.8142383 34.9943945,29.4503125 C34.3940625,26.8142383 32.0326563,24.8404297 29.2173438,24.8404297 C27.4129297,24.8404297 25.7955469,25.6518555 24.7076758,26.928125 L23.6552148,26.3958789 C23.9855273,25.0884375 25.262207,21.5744922 29.451543,21.5744922 C32.8726563,21.5744922 35.6677344,20.5820508 37.9464258,18.549043 C38.8304492,19.3380469 39.9933789,19.9044727 41.0662109,20.4270117 C41.8427734,20.8051758 42.6454492,21.1961914 43.042207,21.5467383 C45.0567578,23.3270898 46.0710742,24.8087109 46.4238086,25.3822461 L46.4238086,26.3592383 L45.2925977,26.9416602 C44.2048633,25.6575977 42.5821484,24.8404297 40.7714453,24.8404297 Z M43.8407812,30.7663672 C43.8407812,32.4588086 42.4638867,33.8357031 40.771582,33.8357031 C39.0792773,33.8357031 37.7023828,32.4588086 37.7023828,30.7663672 C37.7023828,29.0739258 39.0792773,27.6973047 40.771582,27.6973047 C42.4638867,27.6973047 43.8407812,29.0740625 43.8407812,30.7663672 Z M32.2868164,30.7663672 C32.2868164,32.4588086 30.9099219,33.8357031 29.2176172,33.8357031 C27.5253125,33.8357031 26.148418,32.4588086 26.148418,30.7663672 C26.148418,29.0739258 27.5253125,27.6973047 29.2176172,27.6973047 C30.9099219,27.6973047 32.2868164,29.0740625 32.2868164,30.7663672 Z M21.8510742,28.6846875 L23.4327734,29.4846289 C23.3413086,29.897793 23.291543,30.3262695 23.291543,30.7665039 C23.291543,34.0342188 25.9500391,36.6925781 29.2176172,36.6925781 C32.032793,36.6925781 34.3941992,34.7187695 34.994668,32.0825586 C35.595,34.7186328 37.9564063,36.6925781 40.7717188,36.6925781 C44.0394336,36.6925781 46.697793,34.034082 46.697793,30.7665039 C46.697793,30.3325586 46.649668,29.9096875 46.5606641,29.5021289 L48.1470117,28.6855078 C48.9833203,28.8263281 49.6234375,29.5539453 49.6234375,30.4300391 C49.6234375,31.4066211 48.8288281,32.2010937 47.8523828,32.2010937 C47.0635156,32.2010937 46.4239453,32.8405273 46.4239453,33.6295312 L46.4239453,35.9605859 C46.2941992,37.4711914 45.5432031,38.8554687 44.4525977,39.59375 L36.7834961,43.9913086 C36.7573828,44.0063477 36.7319531,44.0220703 36.7067969,44.0386133 C35.6361523,44.7458594 34.3574219,44.7459961 33.2863672,44.0386133 C33.2608008,44.0216602 33.2348242,44.0056641 33.2080273,43.9904883 L25.5165039,39.5934766 C24.4249414,38.854375 23.700332,37.5027734 23.5689453,35.9609961 L23.5689453,33.629668 C23.5689453,32.8408008 22.929375,32.2012305 22.1405078,32.2012305 C21.1639258,32.2012305 20.3694531,31.4066211 20.3694531,30.4301758 C20.3695898,29.5523047 21.0120312,28.8237305 21.8510742,28.6846875 Z M39.3255078,45.8270313 L39.3255078,48.4371289 C39.3255078,50.8349023 37.3923047,52.7856055 34.9945313,52.7856055 C32.5967578,52.7856055 30.6676562,50.8349023 30.6676562,48.4371289 L30.6676562,45.8288086 L31.7529297,46.449375 C32.7554883,47.1005664 33.8760352,47.4260938 34.996582,47.4260938 C36.1174023,47.4260938 37.2382227,47.100293 38.240918,46.4488281 L39.3255078,45.8270313 Z M13.9931641,57.4823047 L13.9931641,58.427168 L12.3451562,58.427168 L12.3451562,55.5275 L14.2700195,55.5275 C14.0905078,56.1573633 13.9931641,56.8156641 13.9931641,57.4823047 Z M15.8369531,52.670625 L2.86384766,52.670625 L2.86384766,32.1866016 C2.86384766,31.9137109 3.05416016,31.6832031 3.27933594,31.6832031 L17.6886719,31.6832031 C18.1078516,33.1698828 19.2498633,34.3567383 20.712207,34.8325195 L20.712207,36.018418 C20.712207,36.0546484 20.7135742,36.0911523 20.7163086,36.1272461 C20.9038867,38.5803906 22.1228711,40.7760937 23.9773242,42.0008203 C24.0028906,42.0176367 24.0290039,42.0336328 24.0556641,42.0489453 L27.810918,44.1957031 L27.810918,46.4131445 C27.810918,46.7672461 27.5996875,47.0840234 27.272793,47.220332 L18.0795508,51.0507812 C17.2262891,51.40625 16.4650391,51.9691211 15.8369531,52.670625 Z M16.8500391,67.1405273 L16.8500391,57.482168 C16.8500391,55.872168 17.850957,54.2409766 19.1782227,53.6878125 L27.9675977,50.0256641 C28.6933008,53.2366406 31.5672656,55.6424805 34.9943945,55.6424805 C38.4220703,55.6424805 41.2963086,53.2358203 42.0214648,50.0241602 L50.8145313,53.6879492 C52.1417969,54.2409766 53.1427148,55.872168 53.1427148,57.4823047 L53.1427148,67.1405273 L16.8500391,67.1405273 Z"/>
  </g>
</svg>
