<svg xmlns="http://www.w3.org/2000/svg" width="70" height="70" viewBox="0 0 70 70">
  <g fill="#FFF">
    <path d="M13.1796875 40.0931836L6.26568359 40.0931836C5.47667969 40.0931836 4.83710937 40.7327539 4.83710937 41.5217578 4.83710937 42.3107617 5.47667969 42.950332 6.26568359 42.950332L13.1796875 42.950332C13.9686914 42.950332 14.6082617 42.3107617 14.6082617 41.5217578 14.6082617 40.7327539 13.9686914 40.0931836 13.1796875 40.0931836zM13.1796875 48.1744922L6.26568359 48.1744922C5.47667969 48.1744922 4.83710937 48.8140625 4.83710937 49.6030664 4.83710937 50.3920703 5.47667969 51.0316406 6.26568359 51.0316406L13.1796875 51.0316406C13.9686914 51.0316406 14.6082617 50.3920703 14.6082617 49.6030664 14.6082617 48.8140625 13.9686914 48.1744922 13.1796875 48.1744922zM13.1796875 44.1337695L6.26568359 44.1337695C5.47667969 44.1337695 4.83710937 44.7733398 4.83710937 45.5623438 4.83710937 46.3513477 5.47667969 46.990918 6.26568359 46.990918L13.1796875 46.990918C13.9686914 46.990918 14.6082617 46.3513477 14.6082617 45.5623438 14.6082617 44.7733398 13.9686914 44.1337695 13.1796875 44.1337695z"/>
    <path d="M19.0201758 37.0532422L13.0995703 31.1326367C12.8317383 30.8648047 12.4683398 30.7142773 12.0894922 30.7142773L1.43554688 30.7142773C.646542969 30.7142773.00697265625 31.3538477.00697265625 32.1428516L.00697265625 53.7143359C.00697265625 54.5033398.646542969 55.1429102 1.43554688 55.1429102L12.5306836 55.1429102C13.3196875 55.1429102 13.9592578 54.5033398 13.9592578 53.7143359 13.9592578 52.925332 13.3196875 52.2857617 12.5306836 52.2857617L2.86412109 52.2857617 2.86412109 33.5714258 10.6606445 33.5714258 10.6606445 38.063457C10.6606445 38.8524609 11.3002148 39.4920312 12.0892188 39.4920312L16.58125 39.4920312 16.58125 48.9963086C16.58125 49.7853125 17.2208203 50.4248828 18.0098242 50.4248828 18.7988281 50.4248828 19.4383984 49.7853125 19.4383984 48.9963086L19.4383984 38.063457C19.4383984 37.6846094 19.2880078 37.3213477 19.0201758 37.0532422zM13.517793 36.6348828L13.517793 35.5917187 14.560957 36.6348828 13.517793 36.6348828zM40.5485937 60.9999414L40.5298633 60.9999414C39.7408594 60.9999414 39.1012891 61.6395117 39.1012891 62.4285156 39.1012891 63.2175195 39.7408594 63.8570898 40.5298633 63.8570898L40.5485937 63.8570898C41.3375977 63.8570898 41.977168 63.2175195 41.977168 62.4285156 41.977168 61.6395117 41.3375977 60.9999414 40.5485937 60.9999414zM50.5298828 60.9999414L45.1700977 60.9999414C44.3810937 60.9999414 43.7415234 61.6395117 43.7415234 62.4285156 43.7415234 63.2175195 44.3810937 63.8570898 45.1700977 63.8570898L50.5298828 63.8570898C51.3188867 63.8570898 51.958457 63.2175195 51.958457 62.4285156 51.958457 61.6395117 51.3188867 60.9999414 50.5298828 60.9999414zM36.0103516 61.4315625L35.9970898 61.4183008C35.4391406 60.8604883 34.5344727 60.8604883 33.9766602 61.4183008 33.4188477 61.97625 33.4188477 62.880918 33.9766602 63.4387305L33.9899219 63.4519922C34.2688281 63.7310352 34.6345508 63.8703516 35 63.8703516 35.3657227 63.8703516 35.7313086 63.7308984 36.0103516 63.4519922 36.5681641 62.894043 36.5681641 61.989375 36.0103516 61.4315625zM1.44730469 67.1428516L1.42857422 67.1428516C.639570312 67.1428516 0 67.7824219 0 68.5714258 0 69.3604297.639570312 70 1.42857422 70L1.44730469 70C2.23630859 70 2.87587891 69.3604297 2.87587891 68.5714258 2.87587891 67.7824219 2.23630859 67.1428516 1.44730469 67.1428516zM68.5714258 67.1428516L68.5526953 67.1428516C67.7636914 67.1428516 67.1241211 67.7824219 67.1241211 68.5714258 67.1241211 69.3604297 67.7636914 70 68.5526953 70L68.5714258 70C69.3604297 70 70 69.3604297 70 68.5714258 70 67.7824219 69.3604297 67.1428516 68.5714258 67.1428516zM40.2098047 28.9999609C39.3291992 28.9999609 38.6129297 29.7162305 38.6129297 30.5968359 38.6129297 31.4773047 39.3291992 32.1935742 40.2098047 32.1935742 41.0904102 32.1935742 41.8066797 31.4773047 41.8066797 30.5968359 41.8066797 29.7162305 41.0904102 28.9999609 40.2098047 28.9999609zM29.7901953 28.9999609C28.9095898 28.9999609 28.1933203 29.7162305 28.1933203 30.5968359 28.1933203 31.4773047 28.9095898 32.1935742 29.7901953 32.1935742 30.6706641 32.1935742 31.3869336 31.4773047 31.3870703 30.5968359 31.3869336 29.7162305 30.6706641 28.9999609 29.7901953 28.9999609zM36.4020508 35.7307617L33.6099805 35.7307617C32.8209766 35.7307617 32.1814062 36.370332 32.1814062 37.1593359 32.1814062 38.7166992 33.4485156 39.9839453 35.0060156 39.9839453 36.5635156 39.9839453 37.8304883 38.7169727 37.830625 37.1593359 37.830625 36.370332 37.1910547 35.7307617 36.4020508 35.7307617zM33.1049414 6.55388672C32.8505078 5.80699219 32.0385352 5.40804688 31.2919141 5.66248047 27.1433203 7.07615234 23.9424609 10.5047852 22.5100586 15.0692773 22.2738086 15.8220508 22.6924414 16.6239062 23.4453516 16.8600195 23.5878125 16.9047266 23.7317773 16.925918 23.8735547 16.925918 24.4811328 16.925918 25.0446875 16.5351758 25.2360938 15.9248633 25.9159961 13.7585547 27.7264258 9.89597656 32.2135352 8.36691406 32.9604297 8.11248047 33.3595117 7.30078125 33.1049414 6.55388672zM36.3423047 4.86855469L36.3228906 4.86855469C35.5338867 4.86855469 34.8943164 5.508125 34.8943164 6.29712891 34.8943164 7.08613281 35.5338867 7.72570312 36.3228906 7.72570312L36.3423047 7.72570312C37.1313086 7.72570312 37.7708789 7.08613281 37.7708789 6.29712891 37.7708789 5.508125 37.1313086 4.86855469 36.3423047 4.86855469zM66.1498633 46.0513867L66.1457617 29.4298047C66.145625 28.4373633 65.759668 27.5048047 65.0588477 26.8039844 64.3581641 26.1033008 63.4257422 25.717207 62.4334375 25.7169336 62.4328906 25.7169336 62.4323438 25.7169336 62.4316602 25.7169336 61.4408594 25.7169336 60.5091211 26.1028906 59.8083008 26.8037109 59.107207 27.5048047 58.7211133 28.4369531 58.72125 29.4283008L58.7250781 46.0520703C58.7250781 46.314707 58.7972656 46.5598438 58.9207227 46.7710742 58.9203125 46.7713477 58.9200391 46.7714844 58.9197656 46.7717578L61.2035156 50.6850586C61.4594531 51.1237891 61.9293555 51.3936719 62.4374023 51.3936719 62.9454492 51.3936719 63.4152148 51.1237891 63.6712891 50.6851953L65.9550391 46.7718945C65.9544922 46.7716211 65.954082 46.7714844 65.9536719 46.7712109 66.0801367 46.5542383 66.1498633 46.3069141 66.1498633 46.0513867zM61.8287305 28.8241406C61.9899219 28.6629492 62.2040234 28.5742188 62.4317969 28.5742188 62.4320703 28.5742188 62.432207 28.5742188 62.4326172 28.5742188 62.6618945 28.5742188 62.8772266 28.6630859 63.038418 28.8244141 63.1774609 28.963457 63.2625 29.1424219 63.2835547 29.3365625L62.409375 29.3364258 61.5833203 29.3362891C61.6038281 29.142832 61.6891406 28.9635938 61.8287305 28.8241406zM61.5819531 44.6230859L61.5786719 32.1933008 63.289707 32.1935742 63.2924414 44.6229492 61.5819531 44.6229492 61.5819531 44.6230859z"/>
    <path d="M63.9310547,57.6871094 L56.0054687,57.6871094 L56.0054687,57.4835352 C56.0054687,54.6989844 54.3249219,52.0540234 51.9188086,51.0513281 L42.7248828,47.2206055 C42.3979883,47.0844336 42.1867578,46.7676563 42.1867578,46.4132813 L42.1867578,44.1888672 C42.1867578,44.1888672 45.9725,42.0170898 45.9975195,42.0005469 C47.8672852,40.7658398 49.0951562,38.5698633 49.2817773,36.1264258 C49.2827344,36.1126172 49.2827344,36.0986719 49.2832812,36.0848633 C51.1395117,35.482207 52.4856445,33.7368555 52.4856445,31.6821094 C52.4856445,31.0552539 52.3582227,30.4449414 52.1173242,29.8779687 C57.5067773,20.3232422 56.4317578,13.7283398 54.5453125,9.85195312 C52.0358398,4.69560547 46.8943945,1.80373047 43.1794727,1.29869141 C42.8207227,1.25001953 42.4524023,1.23251953 42.0799805,1.24496094 C40.2702344,0.433535156 38.1283984,0 35.7660352,0 C27.6331836,0 22.9651953,3.98384766 20.4811523,7.32580078 C17.6096484,11.1894727 16.4958008,15.6180664 16.3935352,18.6507617 C14.6144141,21.3073438 14.0005469,24.1839062 14.617832,26.9970312 C15.4411523,30.7479102 18.2736914,33.7089648 20.714668,35.3093945 C20.7152148,35.6346484 20.716582,36.1026367 20.7183594,36.1262891 C20.9059375,38.579707 22.1250586,40.7755469 23.9796484,42.0004102 C24.0052148,42.0172266 27.8135156,44.1955664 27.8135156,44.1955664 L27.8135156,46.4132812 C27.8135156,46.7673828 27.6022852,47.0842969 27.2753906,47.2206055 L18.0811914,51.0514648 C15.6750781,52.0541602 13.994668,54.6989844 13.994668,57.4833984 L13.994668,67.1427148 L6.06894531,67.1427148 C5.27994141,67.1427148 4.64037109,67.7822852 4.64037109,68.5712891 C4.64037109,69.360293 5.27994141,70 6.06894531,70 L63.9310547,70 C64.7200586,70 65.3596289,69.3604297 65.3596289,68.5714258 L65.3596289,59.1156836 C65.3596289,58.3266797 64.7200586,57.6871094 63.9310547,57.6871094 Z M46.9674023,5.72099609 C48.8569922,6.85958984 50.7685938,8.62080078 51.9762305,11.1022461 C54.1422656,15.5528516 53.4871094,21.2426758 50.0919727,27.6297656 C49.8307031,27.4855273 49.555625,27.366582 49.2707031,27.2751172 L49.2568945,26.1689258 C49.2538867,21.5325195 47.0486133,20.1296484 44.2703516,19.0033594 C45.0780859,17.9927344 45.8160938,16.8449805 46.4824609,15.5588672 C48.2704688,12.0435547 48.4343945,8.57896484 46.9674023,5.72099609 Z M20.6888281,31.0676953 L20.6888281,31.6788281 C19.184375,30.2979687 17.8575195,28.429707 17.4086719,26.3843945 C16.9338477,24.2213672 17.4608984,22.053418 18.975332,19.9408398 C19.149375,19.6981641 19.2428906,19.4070898 19.2428906,19.1084961 C19.2428906,16.65125 20.167793,12.5372461 22.7744727,9.03027344 C25.8186523,4.93417969 30.1898242,2.85714844 35.7658984,2.85714844 C39.6580078,2.85714844 42.7304883,4.22720703 44.1954297,6.61568359 C45.4751172,8.70214844 45.382832,11.4182031 43.9407227,14.2540234 C41.322832,19.3049609 37.7805859,21.6576172 32.7933594,21.6576172 C29.3604883,21.6576172 26.3776953,22.5558594 24.1670898,24.2551367 C21.924082,25.9794336 20.6888281,28.3988086 20.6888281,31.0676953 Z M25.5191016,39.592793 C24.4274023,38.8536914 23.702793,37.5019531 23.5714062,35.9599023 C23.5714062,35.9599023 23.5575977,34.7819336 23.5338086,34.6784375 C23.5416016,34.6178711 23.5338086,31.0674219 23.5338086,31.0674219 C23.5338086,27.209082 27.3486719,24.5144922 32.7934961,24.5144922 C36.4217383,24.5144922 39.5379687,23.4132227 42.1167578,21.2307812 C45.3187109,22.4501758 46.3997461,22.8770117 46.3997461,26.1783594 C46.3997461,26.184375 46.3997461,26.1902539 46.3998828,26.1962695 L46.4285937,28.4998437 C46.4383008,29.281875 47.075,29.9105078 47.8570312,29.9105078 C48.4364453,29.9105078 48.9805859,30.1957031 49.3125391,30.6733984 C49.5191211,30.9704883 49.6282227,31.3192578 49.6282227,31.6819727 C49.6282227,32.6586914 48.8334766,33.4533008 47.8568945,33.4533008 C47.0678906,33.4533008 46.4283203,34.0928711 46.4283203,34.881875 C46.4283203,34.9048438 46.4283203,35.9596289 46.4283203,35.9596289 C46.2985742,37.4703711 45.5474414,38.8547852 44.4568359,39.5932031 L36.7867773,43.9911719 C36.7606641,44.0060742 36.7352344,44.0219336 36.7100781,44.0384766 C35.6394336,44.7457227 34.3605664,44.7458594 33.289375,44.0384766 C33.2638086,44.0215234 33.237832,44.0055273 33.2110352,43.9903516 L25.5191016,39.592793 Z M35.0069727,52.4886523 L30.3810937,47.8530664 C30.5677148,47.4058594 30.6706641,46.9188672 30.6706641,46.4131445 L30.6706641,45.8286719 L31.7560742,46.4492383 C32.7587695,47.1005664 33.8793164,47.4260937 35.0001367,47.4260937 C36.1210938,47.4260937 37.2421875,47.100293 38.2450195,46.4486914 L39.3294727,45.8268945 L39.3294727,46.4131445 C39.3294727,46.9225586 39.4340625,47.412832 39.6231445,47.8627734 L35.0069727,52.4886523 Z M39.36625,52.1651758 L38.7530664,56.1062305 L37.050918,54.4851562 L39.36625,52.1651758 Z M32.9628906,54.4851562 L31.2607422,56.1062305 L30.6475586,52.1651758 L32.9628906,54.4851562 Z M53.1481836,59.1156836 L53.1481836,67.1428516 L16.8516797,67.1428516 L16.8516797,57.4835352 C16.8516797,55.8733984 17.8527344,54.2419336 19.1801367,53.6887695 L27.456543,50.2403125 L28.8570898,59.2433789 C28.9388477,59.7686523 29.3055273,60.2051953 29.8089258,60.3763672 C29.9593164,60.4275 30.1146289,60.4523828 30.2684375,60.4523828 C30.6296484,60.4523828 30.9840234,60.3153906 31.2539062,60.0582227 L35.0068359,56.4839844 L38.7596289,60.0582227 C39.0296484,60.3152539 39.3838867,60.4523828 39.7450977,60.4523828 C39.899043,60.4523828 40.0542188,60.4275 40.2046094,60.3763672 C40.7078711,60.2051953 41.0745508,59.7687891 41.1564453,59.2433789 L42.5561719,50.2457813 L50.8195898,53.6887695 C52.1469922,54.2419336 53.1480469,55.8732617 53.1480469,57.4835352 L53.1480469,59.1156836 L53.1481836,59.1156836 Z M62.5024805,67.1428516 L56.0054687,67.1428516 L56.0054687,65.2721289 L62.5024805,65.2721289 L62.5024805,67.1428516 Z M62.5024805,62.4149805 L56.0054687,62.4149805 L56.0054687,60.5442578 L62.5024805,60.5442578 L62.5024805,62.4149805 Z"/>
  </g>
</svg>
