<svg xmlns="http://www.w3.org/2000/svg" width="24" height="24" viewBox="0 0 24 24">
  <path fill="#007BB5" fill-rule="evenodd" d="M2.4,0 L21.6,0 C22.9254834,0 24,1.0745166 24,2.4 L24,21.6 C24,22.9254834 22.9254834,24 21.6,24 L2.4,24 C1.0745166,24 0,22.9254834 0,21.6 L0,2.4 C0,1.0745166 1.0745166,0 2.4,0 Z M7.8258,18.5934 L7.8258,9.0774 L4.8972,9.0774 L4.8972,18.5934 L7.8258,18.5934 Z M7.8258,5.7048 C7.83096037,4.8733071 7.16275232,4.19419933 6.33128476,4.18590645 C5.49981719,4.17761357 4.81819686,4.84325842 4.80677158,5.67468884 C4.79534631,6.50611926 5.45841852,7.1902425 6.2898,7.2048 L6.3072,7.2048 C6.71248012,7.22474194 7.10754075,7.07376454 7.39622627,6.78861488 C7.68491179,6.50346522 7.84074611,6.1102951 7.8258,5.7048 Z M12.6042,18.5934 L12.6042,13.1718 C12.5917926,12.9051855 12.627565,12.6385186 12.7098,12.3846 C12.9547044,11.6821626 13.6147156,11.2094909 14.3586,11.2038 C15.522,11.2038 16.251,11.8668 16.251,13.1718 L16.251,18.5934 L19.2,18.5934 L19.2,13.0266 C19.2,10.0446 17.6148,8.6568 15.5004,8.6568 C14.2977183,8.60971912 13.1704209,9.24176615 12.5832,10.2924 L12.6048,9.0198 L9.66,9.0198 C9.702,9.9312 9.66,18.5934 9.66,18.5934 L12.6036,18.5934 L12.6042,18.5934 Z"/>
</svg>
