<svg xmlns="http://www.w3.org/2000/svg" width="40" height="40" viewBox="0 0 40 40">
  <path fill="#F2F2F2" fill-rule="evenodd" d="M4,0 L36,0 C38.209139,0 40,1.790861 40,4 L40,36 C40,38.209139 38.209139,40 36,40 L4,40 C1.790861,40 0,38.209139 0,36 L0,4 C0,1.790861 1.790861,0 4,0 Z M9.545,13.38 C9.57921173,13.049537 9.45363519,12.7225922 9.207,12.5 L6.698,9.48 L6.698,9.03 L14.488,9.03 L20.51,22.23 L25.804,9.03 L33.231,9.03 L33.231,9.48 L31.085,11.53 C30.9001447,11.674555 30.808887,11.9084508 30.847,12.14 L30.847,27.25 C30.8089264,27.4786606 30.9005372,27.7096121 31.085,27.85 L33.185,29.91 L33.185,30.36 L22.643,30.36 L22.643,29.91 L24.813,27.8 C24.9904408,27.6554451 25.0725752,27.4240806 25.026,27.2 L25.026,14.98 L18.992,30.31 L18.176,30.31 L11.151,14.98 L11.151,25.25 C11.091037,25.6823409 11.2346824,26.1180778 11.54,26.43 L14.363,29.86 L14.363,30.31 L6.363,30.31 L6.363,29.86 L9.186,26.43 C9.48783879,26.1168172 9.62262038,25.6786842 9.549,25.25 L9.549,13.38 L9.545,13.38 Z"/>
</svg>
