<svg xmlns="http://www.w3.org/2000/svg" width="34" height="34" viewBox="0 0 34 34">
  <g fill="none" fill-rule="evenodd" transform="translate(-3 -3)">
    <rect width="40" height="40"/>
    <path fill="#FFF" fill-rule="nonzero" d="M30,0 L3.33333333,0 C1.49333333,0 0,1.49666667 0,3.33333333 L0,20 C0,21.8383333 1.49333333,23.3333333 3.33333333,23.3333333 L12.6416667,23.3333333 L2.64333333,33.3316667 L7.35666667,33.3316667 L15,25.69 L15,33.3316667 L18.3333333,33.3316667 L18.3333333,25.69 L25.9766667,33.3316667 L30.69,33.3316667 L20.6916667,23.3333333 L30,23.3333333 C31.84,23.3333333 33.3333333,21.8383333 33.3333333,20 L33.3333333,3.33333333 C33.3333333,1.49666667 31.84,0 30,0 Z M30,3.33333333 L30,4.31 L21.6666667,12.6433333 L19.5116667,10.4883333 C18.86,9.83666667 17.8066667,9.83666667 17.155,10.4883333 L15,12.6433333 L11.1783333,8.82166667 C10.5266667,8.17 9.47333333,8.17 8.82166667,8.82166667 L5.97666667,11.6666667 L3.33333333,11.6666667 L3.33333333,3.33333333 L30,3.33333333 Z M3.33333333,20 L3.33333333,15 L6.66666667,15 C7.11,15 7.53333333,14.825 7.845,14.5116667 L10,12.3583333 L13.8216667,16.1783333 C14.4733333,16.83 15.5266667,16.83 16.1783333,16.1783333 L18.3333333,14.025 L20.4883333,16.1783333 C20.8133333,16.5033333 21.24,16.6666667 21.6666667,16.6666667 C22.0933333,16.6666667 22.52,16.5033333 22.845,16.1783333 L29.9983333,9.025 L29.995,20 L3.33333333,20 Z" transform="translate(3.333 3.333)"/>
  </g>
</svg>
