<svg xmlns="http://www.w3.org/2000/svg" width="121" height="20" viewBox="0 0 121 20">
  <g fill="none" fill-rule="evenodd">
    <path fill="#E7ECF1" d="M19.7999638,8 L32,8 L32,12 L19.7999638,12 C18.8734231,16.5644806 14.8379158,20 10,20 C4.4771525,20 0,15.5228475 0,10 C0,4.4771525 4.4771525,0 10,0 C14.8379158,0 18.8734231,3.43551936 19.7999638,8 Z M39,8 L52,8 L52,12 L39,12 L39,8 Z M62,8 L75,8 L75,12 L62,12 L62,8 Z M85,8 L98,8 L98,12 L85,12 L85,8 Z M108,8 L121,8 L121,12 L108,12 L108,8 Z"/>
    <circle cx="10" cy="10" r="5" fill="#FFF"/>
  </g>
</svg>
