<svg width="608" height="321" viewBox="0 0 608 321" version="1.1" xmlns="http://www.w3.org/2000/svg" xmlns:xlink="http://www.w3.org/1999/xlink">
<title>city</title>
<desc>Created using Figma</desc>
<g id="Canvas" transform="translate(-1395 -459)">
<g id="city">
<g id="building14">
<use xlink:href="#path0_fill" transform="translate(1855.57 537)" fill="url(#paint0_linear)"/>
</g>
<g id="building13">
<use xlink:href="#path1_fill" transform="translate(1623.27 572)" fill="url(#paint1_linear)"/>
</g>
<g id="building12">
<use xlink:href="#path2_fill" transform="translate(1725.18 740)" fill="#1A306D"/>
</g>
<g id="building11">
<use xlink:href="#path2_fill" transform="translate(1441.94 740)" fill="#1C255C"/>
</g>
<g id="building10">
<use xlink:href="#path3_fill" transform="translate(1816.1 629)" fill="url(#paint4_linear)"/>
</g>
<g id="building9">
<use xlink:href="#path4_fill" transform="translate(1593.05 617)" fill="url(#paint5_linear)"/>
</g>
<g id="building8">
<use xlink:href="#path3_fill" transform="translate(1471.41 629)" fill="url(#paint6_linear)"/>
</g>
<g id="building7">
<use xlink:href="#path5_fill" transform="translate(1921.27 694)" fill="#18357D"/>
</g>
<g id="building6">
<use xlink:href="#path6_fill" transform="translate(1513.63 526)" fill="url(#paint8_linear)"/>
</g>
<g id="building5">
<use xlink:href="#path7_fill" transform="translate(1696.97 459)" fill="url(#paint9_linear)"/>
</g>
<g id="building4">
<use xlink:href="#path8_fill" transform="translate(1746.41 585)" fill="url(#paint10_linear)"/>
</g>
<g id="building3">
<use xlink:href="#path9_fill" transform="translate(1395.73 644)" fill="url(#paint11_linear)"/>
</g>
<g id="building2">
<use xlink:href="#path10_fill" transform="translate(1557.33 656)" fill="url(#paint12_linear)"/>
</g>
<g id="building1">
<use xlink:href="#path10_fill" transform="translate(1660.74 656)" fill="url(#paint13_linear)"/>
</g>
<g id="bubble5">
<g id="bubble">
<use xlink:href="#path11_fill" transform="translate(1496.92 589)" fill="#3ABBC3"/>
</g>
<g id="Shape">
<use xlink:href="#path12_fill" transform="translate(1504.92 597)" fill="#FFFFFF"/>
</g>
</g>
<g id="bubble4">
<g id="bubble">
<use xlink:href="#path13_fill" transform="translate(1633.79 555)" fill="#0697D9"/>
</g>
<g id="Shape">
<use xlink:href="#path14_fill" transform="translate(1646.79 568)" fill="#FFFFFF"/>
</g>
</g>
<g id="bubble3">
<g id="bubble">
<use xlink:href="#path13_fill" transform="translate(1696.73 595)" fill="#3ABBC3"/>
</g>
<g id="Combined Shape">
<use xlink:href="#path15_fill" transform="translate(1712.73 610)" fill="#FFFFFF"/>
</g>
</g>
<g id="bubble2">
<g id="bubble">
<use xlink:href="#path11_fill" transform="translate(1867.59 589)" fill="#0697D9"/>
</g>
<g id="Shape">
<use xlink:href="#path16_fill" transform="translate(1875.59 597)" fill="#FFFFFF"/>
</g>
</g>
<g id="bubble1">
<g id="bubble">
<use xlink:href="#path13_fill" transform="translate(1934.02 612)" fill="#3ABBC3"/>
</g>
<g id="Combined Shape">
<use xlink:href="#path17_fill" transform="translate(1950.02 628)" fill="#FFFFFF"/>
</g>
</g>
</g>
</g>
<defs>
<linearGradient id="paint0_linear" x1="0" y1="0" x2="1" y2="0" gradientUnits="userSpaceOnUse" gradientTransform="matrix(0 243 -102 0 51 0)">
<stop offset="0" stop-color="#225D99"/>
<stop offset="1" stop-color="#163278"/>
</linearGradient>
<linearGradient id="paint1_linear" x1="0" y1="0" x2="1" y2="0" gradientUnits="userSpaceOnUse" gradientTransform="matrix(0 208 -102 0 51 0)">
<stop offset="0" stop-color="#365395"/>
<stop offset="1" stop-color="#192A5C"/>
</linearGradient>
<linearGradient id="paint4_linear" x1="0" y1="0" x2="1" y2="0" gradientUnits="userSpaceOnUse" gradientTransform="matrix(0 151 -102 0 51 0)">
<stop offset="0" stop-color="#354B96"/>
<stop offset="1" stop-color="#2B4587"/>
</linearGradient>
<linearGradient id="paint5_linear" x1="0" y1="0" x2="1" y2="0" gradientUnits="userSpaceOnUse" gradientTransform="matrix(0 163 -103 0 51.5 0)">
<stop offset="0" stop-color="#385593"/>
<stop offset="1" stop-color="#33467E"/>
</linearGradient>
<linearGradient id="paint6_linear" x1="0" y1="0" x2="1" y2="0" gradientUnits="userSpaceOnUse" gradientTransform="matrix(0 151 -102 0 51 0)">
<stop offset="0" stop-color="#2F4282"/>
<stop offset="1" stop-color="#283465"/>
</linearGradient>
<linearGradient id="paint8_linear" x1="0" y1="0" x2="1" y2="0" gradientUnits="userSpaceOnUse" gradientTransform="matrix(0 254 -81 0 40.5 0)">
<stop offset="0" stop-color="#344491"/>
<stop offset="1" stop-color="#182659"/>
</linearGradient>
<linearGradient id="paint9_linear" x1="0" y1="0" x2="1" y2="0" gradientUnits="userSpaceOnUse" gradientTransform="matrix(0 321 -81 0 40.5 0)">
<stop offset="0" stop-color="#3746A2"/>
<stop offset="1" stop-color="#0D2559"/>
</linearGradient>
<linearGradient id="paint10_linear" x1="0" y1="0" x2="1" y2="0" gradientUnits="userSpaceOnUse" gradientTransform="matrix(0 195 -119 0 59.5 0)">
<stop offset="0" stop-color="#27488A"/>
<stop offset="1" stop-color="#132B6C"/>
</linearGradient>
<linearGradient id="paint11_linear" x1="0" y1="0" x2="1" y2="0" gradientUnits="userSpaceOnUse" gradientTransform="matrix(0 136 -97 0 48.5 0)">
<stop offset="0" stop-color="#2D3E81"/>
<stop offset="1" stop-color="#141D4A"/>
</linearGradient>
<linearGradient id="paint12_linear" x1="0" y1="0" x2="1" y2="0" gradientUnits="userSpaceOnUse" gradientTransform="matrix(0 124 -102 0 51 0)">
<stop offset="0" stop-color="#384996"/>
<stop offset="1" stop-color="#2B3C72"/>
</linearGradient>
<linearGradient id="paint13_linear" x1="0" y1="0" x2="1" y2="0" gradientUnits="userSpaceOnUse" gradientTransform="matrix(0 124 -102 0 51 0)">
<stop offset="0" stop-color="#385BA2"/>
<stop offset="1" stop-color="#1A2E69"/>
</linearGradient>
<path id="path0_fill" fill-rule="evenodd" d="M 63 0L 32 0L 32 10L 22 10L 22 20L 0 20L 0 243L 102 243L 102 20L 93 20L 93 10L 63 10L 63 0Z"/>
<path id="path1_fill" fill-rule="evenodd" d="M 0 0L 102 0L 102 208L 0 208L 0 0Z"/>
<path id="path2_fill" fill-rule="evenodd" d="M 0 0L 102 0L 102 40L 0 40L 0 0Z"/>
<path id="path3_fill" fill-rule="evenodd" d="M 0 0L 102 0L 102 151L 0 151L 0 0Z"/>
<path id="path4_fill" fill-rule="evenodd" d="M 103 0L 41 0L 41 27L 0 27L 0 163L 41 163L 62 163L 103 163L 103 0Z"/>
<path id="path5_fill" fill-rule="evenodd" d="M 0 0L 81 0L 81 86L 0 86L 0 0Z"/>
<path id="path6_fill" fill-rule="evenodd" d="M 56 0L 8 0L 8 7L 0 7L 0 254L 81 254L 81 7L 56 7L 56 0Z"/>
<path id="path7_fill" fill-rule="evenodd" d="M 43 0L 41 0L 41 33L 25 33L 25 66L 6 66L 6 74L 0 74L 0 321L 81 321L 81 74L 76 74L 76 66L 58 66L 58 33L 43 33L 43 0Z"/>
<path id="path8_fill" fill-rule="evenodd" d="M 0 0L 119 0L 119 195L 0 195L 0 0Z"/>
<path id="path9_fill" fill-rule="evenodd" d="M 81 0L 0 0L 0 136L 16 136L 81 136L 97 136L 97 19L 81 19L 81 0Z"/>
<path id="path10_fill" fill-rule="evenodd" d="M 0 0L 102 0L 102 124L 0 124L 0 0Z"/>
<path id="path11_fill" fill-rule="evenodd" d="M 18.4487 29.6016C 25.0707 28.0436 30 22.0975 30 15C 30 6.7157 23.2843 0 15 0C 6.7157 0 0 6.7157 0 15C 0 22.0975 4.92932 28.0436 11.5513 29.6016L 15 34.2L 18.4487 29.6016Z"/>
<path id="path12_fill" fill-rule="evenodd" d="M 2.80005 1.40002L 14 1.40002L 11.9 7.70001L 2.80005 7.70001C 2.41345 7.70001 2.09998 8.01343 2.09998 8.40002C 2.09998 8.78662 2.41345 9.09998 2.80005 9.09998L 11.9 9.09998L 11.9 10.5L 2.80005 10.5C 1.64026 10.5 0.699951 9.55981 0.699951 8.40002C 0.699951 7.24017 1.64026 6.29999 2.80005 6.29999L 3.03101 6.29999L 2.09998 3.5L 1.40002 1.40002L 0 1.40002L 0 0L 2.09998 0C 2.48657 0 2.80005 0.313416 2.80005 0.700012L 2.80005 1.40002ZM 3.5 14C 2.72681 14 2.09998 13.3732 2.09998 12.6C 2.09998 11.8268 2.72681 11.2 3.5 11.2C 4.27319 11.2 4.90002 11.8268 4.90002 12.6C 4.90002 13.3732 4.27319 14 3.5 14ZM 9.09998 12.6C 9.09998 13.3732 9.72681 14 10.5 14C 11.2732 14 11.9 13.3732 11.9 12.6C 11.9 11.8268 11.2732 11.2 10.5 11.2C 9.72681 11.2 9.09998 11.8268 9.09998 12.6Z"/>
<path id="path13_fill" fill-rule="evenodd" d="M 30.7479 49.3361C 41.7844 46.7393 50 36.8291 50 25C 50 11.1929 38.8071 0 25 0C 11.1929 0 0 11.1929 0 25C 0 36.8291 8.21558 46.7393 19.2521 49.3361L 25 57L 30.7479 49.3361Z"/>
<path id="path14_fill" fill-rule="evenodd" d="M 24 12C 24 12.7197 23.5713 13.3257 23.1924 13.8604L 23.1865 13.8688C 22.9406 14.2168 22.7084 14.5454 22.6279 14.8481C 22.5409 15.1711 22.5774 15.5845 22.6161 16.0225L 22.6172 16.0356C 22.6777 16.7075 22.7402 17.4028 22.3936 18.0015C 22.041 18.6099 21.374 18.9175 20.7861 19.1885C 20.3867 19.3726 20.0107 19.5464 19.7783 19.7783C 19.5459 20.0103 19.3721 20.3872 19.1885 20.7861L 19.1877 20.7876C 18.9165 21.3756 18.6089 22.0423 18.001 22.3936C 17.5186 22.6729 16.8096 22.6865 16.0352 22.6177C 15.5967 22.5781 15.1367 22.5503 14.8477 22.6274C 14.5458 22.7082 14.2183 22.9395 13.8706 23.1852L 13.8684 23.1867L 13.8669 23.1878L 13.8604 23.1924C 13.3262 23.5708 12.7197 24 12 24C 11.2803 24 10.6738 23.5708 10.1396 23.1924C 9.78809 22.9438 9.45703 22.709 9.15234 22.6274C 8.86328 22.5503 8.40234 22.5781 7.96387 22.6177C 7.18848 22.6851 6.48242 22.6729 5.99805 22.3931C 5.39111 22.0418 5.0835 21.3751 4.81226 20.7871L 4.81152 20.7856C 4.62793 20.3867 4.4541 20.0103 4.22168 19.7778C 3.98999 19.5466 3.61548 19.3735 3.21851 19.1901L 3.21484 19.1885C 2.62598 18.9175 1.95898 18.6099 1.60645 18.0015C 1.25977 17.4023 1.32227 16.7075 1.38281 16.0356L 1.38391 16.0225C 1.42261 15.5845 1.45911 15.1711 1.37207 14.8477C 1.29163 14.5454 1.05957 14.2168 0.813477 13.869L 0.807617 13.8604C 0.428711 13.3257 0 12.7197 0 12C 0 11.2803 0.428711 10.6743 0.807617 10.1396L 0.813477 10.1312C 1.05945 9.7832 1.29163 9.45459 1.37207 9.15186C 1.45911 8.82892 1.42261 8.41553 1.38391 7.97754L 1.38281 7.96436C 1.32227 7.29248 1.25977 6.59717 1.60645 5.99854C 1.95898 5.39014 2.62598 5.08252 3.21387 4.81152C 3.61328 4.62744 3.98926 4.45361 4.22168 4.22168C 4.4541 3.98975 4.62793 3.61279 4.81152 3.21387L 4.81226 3.2124C 5.0835 2.62439 5.39111 1.9577 5.99902 1.60645C 6.48145 1.32666 7.18945 1.31152 7.96484 1.38232C 8.40332 1.42139 8.86328 1.44971 9.15234 1.37256C 9.45483 1.29163 9.78296 1.05957 10.1316 0.813293L 10.1331 0.812195L 10.1396 0.807617C 10.6738 0.429199 11.2803 0 12 0C 12.7197 0 13.3262 0.429199 13.8604 0.807617L 13.8669 0.812195L 13.8684 0.813293L 13.8706 0.814758C 14.2183 1.06055 14.5458 1.29181 14.8477 1.37256C 15.1367 1.44971 15.5977 1.42139 16.0352 1.38232C 16.8125 1.31299 17.5166 1.32617 18.002 1.60693C 18.6089 1.95819 18.9165 2.62488 19.1877 3.21289L 19.1885 3.21436C 19.3721 3.61328 19.5459 3.98975 19.7783 4.22217C 20.01 4.45343 20.3845 4.62646 20.7815 4.80988L 20.7852 4.81152C 21.374 5.08252 22.041 5.39014 22.3936 5.99854C 22.7402 6.59766 22.6777 7.29248 22.6172 7.96436L 22.6161 7.97754C 22.5774 8.41553 22.5409 8.82892 22.6279 9.15234C 22.7084 9.45459 22.9404 9.7832 23.1865 10.131L 23.1924 10.1396C 23.5713 10.6743 24 11.2803 24 12ZM 9.37891 12.707C 9.37891 12.6484 9.38892 12.5914 9.40808 12.5377C 9.43262 12.4694 9.47229 12.4066 9.52539 12.3535C 9.7207 12.1582 10.0371 12.1582 10.2324 12.3535L 11.2931 13.4141L 10.5862 14.1213L 9.52539 13.0601C 9.43066 12.9663 9.37891 12.8408 9.37891 12.707ZM 9.52539 18.0103L 8.81836 18.7173C 8.7207 18.8149 8.59277 18.8638 8.46484 18.8638C 8.33691 18.8638 8.20898 18.8149 8.11133 18.7173C 7.91602 18.522 7.91602 18.2056 8.11133 18.0103L 8.81836 17.3032C 9.01367 17.1084 9.01367 16.791 8.81836 16.5962C 8.72363 16.502 8.59863 16.4497 8.46484 16.4497L 8.46387 16.4497C 8.33105 16.4497 8.20605 16.5015 8.11133 16.5957C 7.52832 17.1802 6.57422 17.1816 5.98926 16.5962C 5.70605 16.313 5.5498 15.936 5.5498 15.5356C 5.5498 15.1348 5.70605 14.7578 5.98926 14.4746L 6.69629 13.7676C 6.8916 13.5723 7.20801 13.5723 7.40332 13.7676C 7.59863 13.9624 7.59863 14.2793 7.40332 14.4746L 6.69629 15.1821C 6.60156 15.2769 6.5498 15.4019 6.5498 15.5356C 6.5498 15.6689 6.60156 15.7944 6.69629 15.8892C 6.8916 16.0854 7.20898 16.0835 7.4043 15.8892C 7.68652 15.606 8.0625 15.4502 8.46387 15.4497L 8.46484 15.4497C 8.86523 15.4497 9.24219 15.606 9.52539 15.8892C 10.1104 16.4741 10.1104 17.4253 9.52539 18.0103ZM 12.3535 14.4746C 12.5488 14.6699 12.8652 14.6699 13.0605 14.4746C 13.2559 14.2793 13.2559 13.9629 13.0605 13.7676L 10.9395 11.6465C 10.3555 11.0615 9.40234 11.0615 8.81836 11.6465C 8.53516 11.9297 8.37891 12.3066 8.37891 12.707C 8.37891 13.1079 8.53516 13.4849 8.81836 13.7676L 10.2322 15.1816L 10.2329 15.1824L 10.9395 15.8892C 10.9983 15.948 11.0681 15.9891 11.1422 16.0125C 11.1912 16.028 11.2421 16.0356 11.293 16.0356C 11.3632 16.0356 11.4333 16.0209 11.4985 15.9915C 11.5521 15.9673 11.6024 15.9332 11.6465 15.8892C 11.8418 15.6938 11.8418 15.3774 11.6465 15.1821L 11.293 14.8285L 12 14.1212L 12.3535 14.4746ZM 15.8887 11.6465L 14.4746 13.0605C 14.377 13.1582 14.249 13.207 14.1211 13.207C 13.9932 13.207 13.8652 13.1582 13.7676 13.0605L 10.9395 10.2324C 10.7441 10.0371 10.7441 9.7207 10.9395 9.52539C 11.1348 9.33008 11.4512 9.33008 11.6465 9.52539L 14.1211 12L 15.1816 10.9395C 15.377 10.7441 15.6934 10.7441 15.8887 10.9395C 16.084 11.1348 16.084 11.4512 15.8887 11.6465ZM 17.3037 10.2324L 18.7178 8.81787C 18.9131 8.62256 18.9131 8.30615 18.7178 8.11084C 18.5225 7.91553 18.2061 7.91553 18.0107 8.11084L 16.9502 9.17188L 16.2426 8.46436L 16.9502 7.75732C 17.1455 7.5625 17.1455 7.24561 16.9502 7.05029C 16.7549 6.85498 16.4385 6.85498 16.2432 7.05029L 15.5354 7.75739L 14.8281 7.05029L 15.8887 5.98975C 16.084 5.79443 16.084 5.47803 15.8887 5.28271C 15.6934 5.0874 15.377 5.0874 15.1816 5.28271L 13.7676 6.69678C 13.6738 6.79053 13.6211 6.91748 13.6211 7.05029C 13.6211 7.18311 13.6738 7.31006 13.7676 7.40381L 15.1814 8.81738L 15.1824 8.81836L 16.5967 10.2324C 16.6904 10.3262 16.8174 10.3789 16.9502 10.3789C 17.083 10.3789 17.21 10.3262 17.3037 10.2324Z"/>
<path id="path15_fill" fill-rule="evenodd" d="M 8 3L 8 4L 10 4L 10 3C 10 1.34601 8.65405 0 7 0L 5 0L 5 2L 7 2C 7.55103 2 8 2.44897 8 3ZM 15 0C 15 0 13 0 12 1C 11 2 11 4 11 4C 11 4 13 4 14 3C 15 2 15 0 15 0ZM 9 5.66003C 10.0699 4.81097 11.2209 4.367 12.371 4.367C 15.688 4.367 18 7.86298 18 11C 18 15.542 14.533 20 11 20C 10.736 20 10.4821 19.896 10.295 19.709C 10.004 19.423 9.39099 19 9 19C 8.60803 19 7.995 19.424 7.70398 19.71C 7.51794 19.894 7.26196 20 7 20C 3.46704 20 0 15.542 0 11C 0 7.86298 2.31201 4.367 5.62903 4.367C 6.77905 4.367 7.93005 4.81097 9 5.66003Z"/>
<path id="path16_fill" fill-rule="evenodd" d="M 0 7C 0 3.13391 3.13391 0 7 0C 10.8661 0 14 3.13391 14 7C 14 10.8654 10.8661 14 7 14C 3.13391 14 0 10.8654 0 7ZM 5.6001 4.20001C 5.6001 3.42719 4.9729 2.79999 4.20007 2.79999C 3.42725 2.79999 2.80005 3.42719 2.80005 4.20001C 2.80005 4.97351 3.42725 5.59998 4.20007 5.59998C 4.9729 5.59998 5.6001 4.97351 5.6001 4.20001ZM 11.2001 8.40002C 11.2001 10.2319 9.198 11.9 7 11.9C 4.802 11.9 2.80005 10.2319 2.80005 8.40002L 2.80005 7.70001L 11.2001 7.70001L 11.2001 8.40002ZM 8.40002 4.20001C 8.40002 4.97351 9.02722 5.59998 9.80005 5.59998C 10.5729 5.59998 11.2001 4.97351 11.2001 4.20001C 11.2001 3.42719 10.5729 2.79999 9.80005 2.79999C 9.02722 2.79999 8.40002 3.42719 8.40002 4.20001Z"/>
<path id="path17_fill" fill-rule="evenodd" d="M 3 6C 4.65686 6 6 4.65686 6 3C 6 1.34314 4.65686 0 3 0C 1.34314 0 0 1.34314 0 3C 0 4.65686 1.34314 6 3 6ZM 15 18C 16.6569 18 18 16.6569 18 15C 18 13.3431 16.6569 12 15 12C 13.3431 12 12 13.3431 12 15C 12 16.6569 13.3431 18 15 18ZM 16.2925 0.29425L 0.292969 16.2938L 1.70642 17.7073L 17.7061 1.70776L 16.2925 0.29425Z"/>
</defs>
</svg>
