<svg xmlns="http://www.w3.org/2000/svg" width="1125" height="321" viewBox="0 0 1125 321">
  <defs>
    <linearGradient id="city-a" x1="50%" x2="50%" y1="0%" y2="100%">
      <stop offset="0%" stop-color="#225D99"/>
      <stop offset="100%" stop-color="#163278"/>
    </linearGradient>
    <linearGradient id="city-b" x1="50%" x2="50%" y1="0%" y2="100%">
      <stop offset="0%" stop-color="#365395"/>
      <stop offset="100%" stop-color="#192A5C"/>
    </linearGradient>
    <linearGradient id="city-c" x1="50%" x2="50%" y1="0%" y2="100%">
      <stop offset="0%" stop-color="#354B96"/>
      <stop offset="100%" stop-color="#2B4587"/>
    </linearGradient>
    <linearGradient id="city-d" x1="50%" x2="50%" y1="0%" y2="100%">
      <stop offset="0%" stop-color="#385593"/>
      <stop offset="100%" stop-color="#33467E"/>
    </linearGradient>
    <linearGradient id="city-e" x1="50%" x2="50%" y1="0%" y2="100%">
      <stop offset="0%" stop-color="#2F4282"/>
      <stop offset="100%" stop-color="#283465"/>
    </linearGradient>
    <linearGradient id="city-f" x1="50%" x2="50%" y1="0%" y2="100%">
      <stop offset="0%" stop-color="#344491"/>
      <stop offset="100%" stop-color="#182659"/>
    </linearGradient>
    <linearGradient id="city-g" x1="50%" x2="50%" y1="0%" y2="100%">
      <stop offset="0%" stop-color="#3746A2"/>
      <stop offset="100%" stop-color="#0D2559"/>
    </linearGradient>
    <linearGradient id="city-h" x1="50%" x2="50%" y1="0%" y2="100%">
      <stop offset="0%" stop-color="#27488A"/>
      <stop offset="100%" stop-color="#132B6C"/>
    </linearGradient>
    <linearGradient id="city-i" x1="50%" x2="50%" y1="0%" y2="100%">
      <stop offset="0%" stop-color="#2D3E81"/>
      <stop offset="100%" stop-color="#141D4A"/>
    </linearGradient>
    <linearGradient id="city-j" x1="50%" x2="50%" y1="0%" y2="100%">
      <stop offset="0%" stop-color="#384996"/>
      <stop offset="100%" stop-color="#2B3C72"/>
    </linearGradient>
    <linearGradient id="city-k" x1="50%" x2="50%" y1="0%" y2="100%">
      <stop offset="0%" stop-color="#385BA2"/>
      <stop offset="100%" stop-color="#1A2E69"/>
    </linearGradient>
  </defs>
  <g fill="none" fill-rule="evenodd">
    <path fill="url(#city-a)" d="M986,88 L1016,88 L1016,98 L1025,98 L1025,321 L923,321 L923,98 L945,98 L945,88 L955,88 L955,78 L986,78 L986,88 Z"/>
    <rect width="102" height="208" x="458" y="113" fill="url(#city-b)"/>
    <rect width="102" height="40" x="662" y="281" fill="#1A306D"/>
    <rect width="102" height="40" x="95" y="281" fill="#1C255C"/>
    <rect width="102" height="151" x="844" y="170" fill="url(#city-c)"/>
    <path fill="url(#city-d)" d="M439,321 L398,321 L398,185 L439,185 L439,158 L501,158 L501,321 L439,321 Z"/>
    <rect width="102" height="151" x="154" y="170" fill="url(#city-e)"/>
    <rect width="81" height="86" x="1044" y="235" fill="#18357D"/>
    <path fill="url(#city-f)" d="M236,74 L236,67 L284,67 L284,74 L309,74 L309,321 L228,321 L228,74 L236,74 Z"/>
    <path fill="url(#city-g)" d="M636,33 L636,0 L638,0 L638,33 L653,33 L653,66 L671,66 L671,74 L676,74 L676,321 L595,321 L595,74 L601,74 L601,66 L620,66 L620,33 L636,33 Z"/>
    <rect width="119" height="195" x="713" y="126" fill="url(#city-h)"/>
    <path fill="url(#city-i)" d="M81,204 L97,204 L97,321 L81,321 L0,321 L0,185 L81,185 L81,204 Z"/>
    <rect width="102" height="124" x="326" y="197" fill="url(#city-j)"/>
    <rect width="102" height="124" x="533" y="197" fill="url(#city-k)"/>
    <g transform="translate(169 130)">
      <path fill="#3ABBC3" d="M11.55122,29.6016267 C4.92933061,28.0435725 0,22.0974397 0,15 C0,6.71572875 6.71572875,0 15,0 C23.2842712,0 30,6.71572875 30,15 C30,22.0974397 25.0706694,28.0435725 18.44878,29.6016267 L15,34.2 L11.55122,29.6016267 Z"/>
      <path fill="#FFF" fill-rule="nonzero" d="M10.8,9.4 L22,9.4 L19.9,15.7 L10.8,15.7 C10.4134007,15.7 10.1,16.0134007 10.1,16.4 C10.1,16.7865993 10.4134007,17.1 10.8,17.1 L19.9,17.1 L19.9,18.5 L10.8,18.5 C9.64020203,18.5 8.7,17.559798 8.7,16.4 C8.7,15.240202 9.64020203,14.3 10.8,14.3 L11.031,14.3 L10.1,11.5 L9.4,9.4 L8,9.4 L8,8 L10.1,8 C10.4865993,8 10.8,8.31340068 10.8,8.7 L10.8,9.4 Z M11.5,22 C10.7268014,22 10.1,21.3731986 10.1,20.6 C10.1,19.8268014 10.7268014,19.2 11.5,19.2 C12.2731986,19.2 12.9,19.8268014 12.9,20.6 C12.9,21.3731986 12.2731986,22 11.5,22 Z M18.5,22 C17.7268014,22 17.1,21.3731986 17.1,20.6 C17.1,19.8268014 17.7268014,19.2 18.5,19.2 C19.2731986,19.2 19.9,19.8268014 19.9,20.6 C19.9,21.3731986 19.2731986,22 18.5,22 Z"/>
    </g>
    <g transform="translate(453 96)">
      <path fill="#0697D9" d="M19.2520315,49.336044 C8.21555008,46.7392864 0,36.8290655 0,25 C0,11.1928813 11.1928813,0 25,0 C38.8071187,0 50,11.1928813 50,25 C50,36.8290655 41.7844499,46.7392864 30.7479685,49.336044 L25,57 L19.2520333,49.3360445 Z"/>
      <path fill="#FFF" fill-rule="nonzero" d="M22.5253906,25.3535156 C22.430664,25.4482422 22.3789062,25.5737304 22.3789062,25.7070312 C22.3789062,25.8408203 22.430664,25.9663085 22.5253906,26.0600585 L23.5861206,27.1212768 L24.2930298,26.4141235 L23.2324219,25.3535156 C23.0371094,25.1582031 22.7207031,25.1582031 22.5253906,25.3535156 Z M36.1923828,26.8603516 C36.5712891,26.3256836 37,25.7197266 37,25 C37,24.2802734 36.5712891,23.6743164 36.1923828,23.1396484 C35.9443359,22.7885742 35.7089844,22.4570312 35.6279297,22.1523437 C35.5400391,21.8256835 35.578125,21.4072265 35.6171875,20.9643554 C35.6777344,20.2924804 35.7402344,19.5976562 35.3935547,18.9985351 C35.0410156,18.3901367 34.3740234,18.0825195 33.7851563,17.8115234 C33.3867188,17.6274414 33.0107422,17.4541015 32.7783204,17.2221679 C32.5458985,16.989746 32.3720704,16.6132812 32.1884766,16.2143554 C31.9169922,15.6259765 31.609375,14.958496 31.0019532,14.6069335 C30.5166016,14.3261718 29.8124886,14.3129882 29.0351563,14.3823241 C28.5976563,14.4213866 28.1367188,14.4497069 27.8476563,14.3725585 C27.5429688,14.2910155 27.2119141,14.0561522 26.8603516,13.8076171 C26.3261719,13.4291992 25.7197266,13 25,13 C24.2802734,13 23.6738281,13.4291992 23.1396484,13.8076172 C22.7880859,14.0561523 22.4570313,14.2910156 22.1523438,14.3725586 C21.8632813,14.449707 21.4033204,14.4213867 20.9648438,14.3823242 C20.1894531,14.3115234 19.4814453,14.3266602 18.9990234,14.6064453 C18.390625,14.9580078 18.0830078,15.6254883 17.8115234,16.2138672 C17.6279297,16.612793 17.4541016,16.9897461 17.2216797,17.2216797 C16.9892578,17.4536133 16.6132813,17.6274414 16.2138672,17.8115234 C15.6259766,18.0825195 14.9589844,18.3901367 14.6064453,18.9985352 C14.2597656,19.597168 14.3222656,20.2924805 14.3828125,20.9643555 C14.421875,21.4072266 14.4599609,21.8256836 14.3720703,22.1518555 C14.2910156,22.4570313 14.055664,22.7885743 13.8076172,23.1396485 C13.4287109,23.6743164 13,24.2802734 13,25 C13,25.7197266 13.4287109,26.3256836 13.8076172,26.8603516 C14.0556641,27.2114258 14.2910156,27.5429688 14.3720703,27.8476563 C14.4599609,28.1743165 14.421875,28.5927735 14.3828125,29.0356446 C14.3222656,29.7075196 14.2597656,30.4023438 14.6064453,31.0014649 C14.9589844,31.6098633 15.6259766,31.9174805 16.2148437,32.1884766 C16.6132812,32.3725586 16.9892578,32.5458985 17.2216796,32.7778321 C17.4541015,33.010254 17.6279296,33.3867188 17.8115234,33.7856446 C18.0830078,34.3740235 18.390625,35.041504 18.9980468,35.3930665 C19.4824218,35.6728517 20.1884765,35.6850587 20.9638671,35.6176759 C21.4023437,35.5781251 21.8632812,35.5502931 22.1523437,35.6274415 C22.4570312,35.7089845 22.7880859,35.9438478 23.1396484,36.1923829 C23.6738281,36.5708008 24.2802734,37 25,37 C25.7197266,37 26.3261719,36.5708008 26.8603516,36.1923828 C27.2119141,35.9438476 27.5429688,35.7089844 27.8476563,35.6274414 C28.1367188,35.550293 28.5966797,35.578125 29.0351563,35.6176758 C29.8095704,35.6865235 30.5185547,35.6728516 31.0009766,35.3935547 C31.609375,35.0419922 31.9169922,34.3745117 32.1884766,33.7861328 C32.3720704,33.387207 32.5458985,33.0102539 32.7783204,32.7783203 C33.0107423,32.5463867 33.3867188,32.3725586 33.7861329,32.1884765 C34.3740235,31.9174804 35.0410157,31.6098632 35.3935548,31.0014648 C35.7402345,30.402832 35.6777345,29.7075195 35.6171876,29.0356445 C35.5781251,28.5927734 35.5400392,28.1743164 35.6279298,27.8481445 C35.7089844,27.5429688 35.9443359,27.2114258 36.1923828,26.8603516 Z M22.5253906,31.0102539 L21.8183593,31.7172852 C21.720703,31.8149415 21.5927734,31.8637696 21.4648437,31.8637696 C21.336914,31.8637696 21.2089843,31.8149415 21.1113281,31.7172852 C20.9160156,31.5219727 20.9160156,31.2055664 21.1113281,31.0102539 L21.8183594,30.3032226 C22.0136719,30.1083984 22.0136719,29.7910156 21.8183594,29.5961913 C21.7236328,29.501953 21.5986328,29.4497069 21.4648438,29.4497069 L21.4638672,29.4497069 C21.3310547,29.4497069 21.2060547,29.5014647 21.1113281,29.595703 C20.5283203,30.1801757 19.5742187,30.1816405 18.9892578,29.5961913 C18.7060547,29.3129882 18.5498047,28.936035 18.5498047,28.5356444 C18.5498047,28.1347655 18.7060547,27.7578124 18.9892578,27.4746092 L19.6962891,26.7675779 C19.8916016,26.5722654 20.2080079,26.5722654 20.4033204,26.7675779 C20.5986329,26.9624021 20.5986329,27.2792967 20.4033204,27.4746092 L19.6962891,28.1821287 C19.6015625,28.2768553 19.5498047,28.4018553 19.5498047,28.5356443 C19.5498047,28.6689451 19.6015625,28.7944334 19.6962891,28.8891599 C19.8916016,29.085449 20.2089844,29.0834958 20.4042969,28.8891599 C20.6865235,28.6059568 21.0624886,28.4501951 21.4638672,28.4497068 C21.4638672,28.4497068 21.4638672,28.4497068 21.4648438,28.4497068 C21.8652344,28.4497068 22.2421876,28.6059568 22.5253907,28.8891599 C23.1103516,29.4741211 23.1103516,30.425293 22.5253906,31.0102539 Z M26.0605469,27.4746094 C25.8652344,27.6699219 25.5488281,27.6699219 25.3535156,27.4746094 L25.000061,27.1211548 L24.2929687,27.8284912 L24.6464843,28.1821289 C24.8417968,28.3774414 24.8417968,28.6938477 24.6464843,28.8891602 C24.548828,28.9868165 24.4208984,29.0356446 24.2929687,29.0356446 C24.165039,29.0356446 24.0371093,28.9868165 23.9394531,28.8891602 L23.2329101,28.1824341 C23.2329101,28.1824341 23.2325439,28.182251 23.2324218,28.1821289 L23.2321166,28.1816406 L21.8183593,26.7675781 C21.5351562,26.4848633 21.3789062,26.1079101 21.3789062,25.7070312 C21.3789062,25.3066406 21.5351562,24.9296874 21.8183593,24.6464843 C22.4023437,24.0615234 23.3554687,24.0615234 23.9394531,24.6464843 L26.0605469,26.7675781 C26.2558594,26.9628906 26.2558594,27.2792969 26.0605469,27.4746094 Z M28.8886719,24.6464844 L27.4746094,26.0605469 C27.3769531,26.1582032 27.2490235,26.2070313 27.1210938,26.2070313 C26.9931641,26.2070313 26.8652344,26.1582032 26.7675782,26.0605469 L23.9394532,23.2324219 C23.7441407,23.0371094 23.7441407,22.7207031 23.9394532,22.5253906 C24.1347657,22.3300781 24.451172,22.3300781 24.6464845,22.5253906 L27.1210938,25 L28.1816407,23.9394531 C28.3769532,23.7441406 28.6933595,23.7441406 28.888672,23.9394531 C29.0839845,24.1347656 29.0839844,24.4511719 28.8886719,24.6464844 Z M31.7177734,21.8178711 L30.3037109,23.2324219 C30.2099609,23.3261719 30.0830078,23.3789063 29.9501953,23.3789063 C29.8173828,23.3789063 29.6904297,23.3261719 29.5966797,23.2324219 L28.182373,21.8183594 L28.1816406,21.8178711 C28.1813965,21.817627 28.1813965,21.8173828 28.1813965,21.8173828 L26.7675781,20.4038086 C26.6738281,20.3100586 26.6210937,20.1831055 26.6210937,20.050293 C26.6210937,19.9174805 26.6738281,19.7905274 26.7675781,19.6967774 L28.1816406,18.2827149 C28.3769531,18.0874024 28.6933594,18.0874024 28.8886719,18.2827149 C29.0839844,18.4780274 29.0839844,18.7944337 28.8886719,18.9897462 L27.828125,20.050293 L28.5354004,20.7573853 L29.2431641,20.050293 C29.4384766,19.8549805 29.7548829,19.8549805 29.9501954,20.050293 C30.1455079,20.2456055 30.1455079,20.5625 29.9501954,20.7573243 L29.2424928,21.4643556 L29.9501954,22.1718751 L31.0107423,21.1108399 C31.2060548,20.9155274 31.5224611,20.9155274 31.7177736,21.1108399 C31.9130861,21.3061524 31.9130859,21.6225586 31.7177734,21.8178711 Z"/>
    </g>
    <g transform="translate(579 136)">
      <path fill="#3ABBC3" d="M19.2520315,49.336044 C8.21555008,46.7392864 0,36.8290655 0,25 C0,11.1928813 11.1928813,0 25,0 C38.8071187,0 50,11.1928813 50,25 C50,36.8290655 41.7844499,46.7392864 30.7479685,49.336044 L25,57 L19.2520333,49.3360445 Z"/>
      <path fill="#FFF" fill-rule="nonzero" d="M24,18 C24,17.449 23.551,17 23,17 L21,17 L21,15 L23,15 C24.654,15 26,16.346 26,18 L26,19 L24,19 L24,18 Z M31,15 C31,15 31,17 30,18 C29,19 27,19 27,19 C27,19 27,17 28,16 C29,15 31,15 31,15 Z M28.371,19.367 C31.688,19.367 34,22.863 34,26 C34,30.542 30.533,35 27,35 C26.736,35 26.482,34.896 26.295,34.709 C26.004,34.423 25.391,34 25,34 C24.608,34 23.995,34.424 23.704,34.71 C23.518,34.894 23.262,35 23,35 C19.467,35 16,30.542 16,26 C16,22.863 18.312,19.367 21.629,19.367 C22.779,19.367 23.93,19.811 25,20.66 C26.07,19.811 27.221,19.367 28.371,19.367 Z"/>
    </g>
    <g transform="translate(911 130)">
      <path fill="#0697D9" d="M11.55122,29.6016267 C4.92933061,28.0435725 0,22.0974397 0,15 C0,6.71572875 6.71572875,0 15,0 C23.2842712,0 30,6.71572875 30,15 C30,22.0974397 25.0706694,28.0435725 18.44878,29.6016267 L15,34.2 L11.55122,29.6016267 Z"/>
      <path fill="#FFF" fill-rule="nonzero" d="M15,8 C11.1339,8 8,11.1339 8,15 C8,18.8654 11.1339,22 15,22 C18.8661,22 22,18.8654 22,15 C22,11.1339 18.8661,8 15,8 Z M12.2,10.8 C12.9728,10.8 13.6,11.4272 13.6,12.2 C13.6,12.9735 12.9728,13.6 12.2,13.6 C11.4272,13.6 10.8,12.9735 10.8,12.2 C10.8,11.4272 11.4272,10.8 12.2,10.8 Z M19.2,16.4 C19.2,18.2319 17.198,19.9 15,19.9 C12.802,19.9 10.8,18.2319 10.8,16.4 L10.8,15.7 L19.2,15.7 L19.2,16.4 Z M17.8,13.6 C17.0272,13.6 16.4,12.9735 16.4,12.2 C16.4,11.4272 17.0272,10.8 17.8,10.8 C18.5728,10.8 19.2,11.4272 19.2,12.2 C19.2,12.9735 18.5728,13.6 17.8,13.6 Z"/>
    </g>
    <g transform="translate(1054 153)">
      <path fill="#3ABBC3" d="M19.2520315,49.336044 C8.21555008,46.7392864 0,36.8290655 0,25 C0,11.1928813 11.1928813,0 25,0 C38.8071187,0 50,11.1928813 50,25 C50,36.8290655 41.7844499,46.7392864 30.7479685,49.336044 L25,57 L19.2520333,49.3360445 Z"/>
      <path fill="#FFF" fill-rule="nonzero" d="M19,22 C17.3431458,22 16,20.6568542 16,19 C16,17.3431458 17.3431458,16 19,16 C20.6568542,16 22,17.3431458 22,19 C22,20.6568542 20.6568542,22 19,22 Z M31,34 C29.3431458,34 28,32.6568542 28,31 C28,29.3431458 29.3431458,28 31,28 C32.6568542,28 34,29.3431458 34,31 C34,32.6568542 32.6568542,34 31,34 Z M16.2929777,32.2938365 L32.2925294,16.2942848 L33.7060223,17.7077777 L17.7064706,33.7073294 L16.2929777,32.2938365 Z"/>
    </g>
  </g>
</svg>
